<svg width="1440" height="182" viewBox="0 0 1440 182" fill="none" xmlns="http://www.w3.org/2000/svg">
    <rect x="-55.2227" y="0.510742" width="1662.73" height="88" transform="rotate(3.21815 -55.2227 0.510742)" fill="white" fill-opacity="0.05"/>
    <path fill-rule="evenodd" clip-rule="evenodd" d="M15.5439 60.8792C17.6213 54.672 19.517 48.3324 21.3506 42.0528C17.9535 43.3278 14.9837 45.0106 11.8814 46.8994C10.4395 44.0906 7.30387 40.265 4.96262 38.1678C1.90092 40.8107 -0.350902 43.2726 -2.84745 46.358C-5.19296 44.2082 -7.57474 42.4864 -10.3918 40.9805C-9.83667 47.0921 -8.88078 53.128 -7.5828 59.1244C-4.51812 59.085 -1.82595 58.4422 1.24532 58.5662C6.52315 58.7789 10.4015 59.5282 15.5439 60.8792Z" stroke="url(#paint0_linear_1_111)" stroke-width="3.4417" stroke-miterlimit="1.5" stroke-linecap="round" stroke-linejoin="round"/>
    <path d="M61.0183 58.3733L71.6827 58.9729L67.4623 45.2841L63.9187 45.0849L60.2891 53.3703L61.3827 53.4318C62.3565 53.4866 63.2611 52.918 63.6339 52.0166L65.5557 47.3686L68.2822 56.8689L58.9879 56.3463L56.6141 61.7654C58.4006 61.7881 60.0394 60.7191 60.7314 59.0584L61.0183 58.3733Z" fill="white"/>
    <path d="M67.6593 45.0307L63.7491 44.8108L59.8934 53.6116L61.3664 53.6945C62.452 53.7555 63.4605 53.1215 63.876 52.1167L65.5084 48.168L67.9233 56.5842L58.8182 56.0723L56.2173 62.0115L56.4066 62.0221C58.3781 62.133 60.2137 60.9829 60.9741 59.1601L61.1881 58.6464L72.0442 59.2568L67.6593 45.0307ZM56.6133 61.7653L58.9871 56.3462L68.2807 56.8687L65.5542 47.3685L63.6324 52.0164C63.2596 52.9178 62.3549 53.4864 61.3812 53.4317L60.2876 53.3702L63.9172 45.0847L67.4608 45.284L71.6803 58.9727L61.016 58.3731L60.7298 59.059C60.0387 60.719 58.3999 61.788 56.6133 61.7653Z" fill="white"/>
    <path d="M43.5519 49.1853C43.6423 47.5765 43.217 46.2616 42.2875 45.2781C41.3541 44.2905 39.8717 43.7327 37.8819 43.6209L31.7964 43.2787C31.8008 44.4257 32.7011 45.389 33.8618 45.4543L37.3878 45.6525C38.6244 45.7221 39.4903 46.0416 40.0358 46.6292C40.5766 47.2166 40.8221 48.0237 40.7656 49.0286C40.7163 49.905 40.4463 50.603 39.9638 51.1023C39.3375 51.7515 38.3649 52.0478 37.0727 51.9824L36.9588 54.0098L37.2975 54.0288C39.2202 54.1369 40.7399 53.7464 41.8158 52.8685C42.8791 52.0003 43.4633 50.7606 43.5519 49.1853Z" fill="white"/>
    <path d="M42.4799 45.0974C41.499 44.059 39.9572 43.4739 37.8978 43.3581L31.5439 43.0009L31.5365 43.1327C31.4606 44.4827 32.4973 45.642 33.8465 45.7179L37.3725 45.9161C38.5372 45.9816 39.3446 46.2738 39.8418 46.8091C40.3319 47.3415 40.5538 48.084 40.5015 49.0146C40.4559 49.8254 40.2107 50.4671 39.7733 50.9202C39.1956 51.5183 38.2782 51.7865 37.0456 51.7172L36.8227 51.7047L36.6791 54.2585L37.2814 54.2924C39.2721 54.4043 40.853 53.9939 41.981 53.0733C43.1048 52.1556 43.7214 50.8528 43.8143 49.2001C43.9106 47.5162 43.4609 46.1359 42.4799 45.0974ZM36.9591 54.0098L37.0731 51.9824C38.3652 52.0478 39.3379 51.7523 39.9642 51.1024C40.4467 50.6022 40.7167 49.9042 40.766 49.0287C40.8225 48.0238 40.577 47.2166 40.0362 46.6293C39.4907 46.0417 38.6248 45.7221 37.3882 45.6526L33.8621 45.4543C32.7022 45.3891 31.8012 44.4265 31.7968 43.2787L37.883 43.6209C39.8729 43.7328 41.3553 44.2906 42.2887 45.2782C43.2182 46.2617 43.6435 47.5765 43.5531 49.1854C43.4645 50.7607 42.8804 51.9996 41.8162 52.8685C40.7411 53.7464 39.2206 54.137 37.2978 54.0289L36.9591 54.0098Z" fill="white"/>
    <path d="M31.7609 51.7671L31.3175 51.7422L30.8352 60.3208L33.5711 60.4746L33.9246 54.1887C33.9957 52.9241 33.0254 51.8382 31.7609 51.7671Z" fill="white"/>
    <path d="M31.7751 51.5034L31.0681 51.4636L30.5562 60.5687L33.8194 60.7521L34.1876 54.2026C34.2669 52.7934 33.185 51.5826 31.7751 51.5034ZM33.5706 60.4737L30.8346 60.3199L31.3169 51.7421L31.7603 51.767C33.024 51.838 33.9951 52.924 33.924 54.1885L33.5706 60.4737Z" fill="white"/>
    <path d="M79.8757 62.1254L79.8223 63.0752L82.5839 63.2305L82.7662 59.988L82.2973 59.9617C81.0327 59.8906 79.9468 60.8609 79.8757 62.1254Z" fill="white"/>
    <path d="M79.6114 62.1107L79.5432 63.3241L82.8319 63.509L83.0439 59.7394L82.3114 59.6982C80.9014 59.6189 79.6907 60.7008 79.6114 62.1107ZM82.5832 63.2298L79.8217 63.0745L79.8751 62.1247C79.9461 60.861 81.0321 59.8899 82.2966 59.961L82.7655 59.9874L82.5832 63.2298Z" fill="white"/>
    <path d="M78.1275 45.8838L74.9753 45.7065L80.0063 56.8077L81.7118 56.9036C82.5697 56.9518 83.376 56.5227 83.815 55.7837L89.3231 46.5133L86.2452 46.3402L81.7162 54.4733L78.1275 45.8838Z" fill="white"/>
    <path d="M81.7501 53.8703L78.3076 45.6295L74.5555 45.4186L79.7989 56.9892L79.8317 57.0624L81.6969 57.1673C82.6539 57.2211 83.5519 56.7427 84.0413 55.9192L89.7716 46.2749L86.0946 46.0682L81.7501 53.8703ZM89.323 46.5133L83.8149 55.7846C83.3759 56.5236 82.5704 56.9527 81.7117 56.9045L80.0062 56.8086L74.9752 45.7074L78.1274 45.8847L81.7161 54.4742L86.2451 46.3411L89.323 46.5141L89.323 46.5133Z" fill="white"/>
    <path d="M49.2013 44.2575L46.4653 44.1036L45.7835 56.2298L46.2269 56.2548C47.4906 56.3258 48.5773 55.3556 48.6484 54.091L49.2013 44.2575Z" fill="white"/>
    <path d="M48.9113 54.1059L49.479 44.0087L46.2158 43.8252L45.5044 56.4786L46.2113 56.5184C47.6205 56.5976 48.832 55.5158 48.9113 54.1059ZM46.2261 56.2548L45.7828 56.2298L46.4646 44.1036L49.2006 44.2575L48.6477 54.091C48.5766 55.3556 47.4899 56.3258 46.2261 56.2548Z" fill="white"/>
    <path d="M52.3185 59.6217L45.6139 59.2448L45.507 61.1452L54.2398 61.6362C54.2307 60.5731 53.3945 59.6822 52.3185 59.6217Z" fill="white"/>
    <path d="M45.228 61.3938L54.492 61.9147L54.4994 61.7829C54.5706 60.5168 53.5988 59.4292 52.3327 59.358L45.3645 58.9662L45.228 61.3938ZM45.6133 59.2446L52.3179 59.6216C53.3939 59.6821 54.2301 60.5729 54.2392 61.636L45.5064 61.145L45.6133 59.2446Z" fill="white"/>
    <path d="M80.8647 41.0327C81.1205 41.4132 81.3633 41.8041 81.6266 42.1794" stroke="white" stroke-width="1.68649" stroke-miterlimit="1.5" stroke-linecap="round" stroke-linejoin="round"/>
    <path d="M87.0654 39.5601C86.934 40.0523 86.8412 40.5533 86.7171 41.047" stroke="white" stroke-width="1.68649" stroke-miterlimit="1.5" stroke-linecap="round" stroke-linejoin="round"/>
    <path d="M90.8878 43.9826C91.5265 43.7114 92.1356 43.3763 92.7734 43.1036" stroke="white" stroke-width="1.68649" stroke-miterlimit="1.5" stroke-linecap="round" stroke-linejoin="round"/>
    <path d="M92.9513 50.1956C93.6239 50.3353 94.3062 50.4878 94.9892 50.567" stroke="white" stroke-width="1.68649" stroke-miterlimit="1.5" stroke-linecap="round" stroke-linejoin="round"/>
    <path fill-rule="evenodd" clip-rule="evenodd" d="M159.317 68.9631C161.395 62.7559 163.29 56.4163 165.124 50.1367C161.727 51.4117 158.757 53.0944 155.655 54.9833C154.213 52.1744 151.077 48.3489 148.736 46.2517C145.674 48.8945 143.423 51.3565 140.926 54.4419C138.58 52.292 136.199 50.5702 133.382 49.0644C133.937 55.176 134.893 61.2118 136.191 67.2083C139.255 67.1689 141.947 66.526 145.019 66.6501C150.297 66.8627 154.175 67.612 159.317 68.9631Z" stroke="url(#paint1_linear_1_111)" stroke-width="3.4417" stroke-miterlimit="1.5" stroke-linecap="round" stroke-linejoin="round"/>
    <path d="M204.792 66.4572L215.456 67.0568L211.236 53.368L207.692 53.1687L204.063 61.4542L205.156 61.5157C206.13 61.5704 207.035 61.0019 207.407 60.1005L209.329 55.4525L212.056 64.9528L202.761 64.4302L200.388 69.8493C202.174 69.872 203.813 68.803 204.505 67.1422L204.792 66.4572Z" fill="white"/>
    <path d="M211.433 53.1145L207.523 52.8947L203.667 61.6955L205.14 61.7783C206.225 61.8394 207.234 61.2053 207.649 60.2005L209.282 56.2519L211.697 64.6681L202.592 64.1561L199.991 70.0953L200.18 70.106C202.152 70.2168 203.987 69.0667 204.748 67.2439L204.962 66.7303L215.818 67.3407L211.433 53.1145ZM200.387 69.8492L202.761 64.4301L212.054 64.9526L209.328 55.4523L207.406 60.1003C207.033 61.0017 206.128 61.5703 205.155 61.5155L204.061 61.454L207.691 53.1686L211.234 53.3678L215.454 67.0566L204.789 66.457L204.503 67.1429C203.812 68.8029 202.173 69.8719 200.387 69.8492Z" fill="white"/>
    <path d="M187.325 57.2692C187.416 55.6603 186.99 54.3454 186.061 53.362C185.128 52.3743 183.645 51.8166 181.655 51.7047L175.57 51.3625C175.574 52.5095 176.474 53.4729 177.635 53.5382L181.161 53.7364C182.398 53.8059 183.264 54.1255 183.809 54.7131C184.35 55.3004 184.596 56.1076 184.539 57.1125C184.49 57.9888 184.22 58.6868 183.737 59.1862C183.111 59.8354 182.138 60.1317 180.846 60.0662L180.732 62.0936L181.071 62.1127C182.994 62.2208 184.513 61.8302 185.589 60.9523C186.653 60.0842 187.237 58.8445 187.325 57.2692Z" fill="white"/>
    <path d="M186.253 53.1813C185.272 52.1429 183.731 51.5578 181.671 51.442L175.317 51.0847L175.31 51.2165C175.234 52.5665 176.271 53.7259 177.62 53.8018L181.146 54C182.311 54.0655 183.118 54.3577 183.615 54.8929C184.105 55.4253 184.327 56.1678 184.275 57.0985C184.229 57.9093 183.984 58.551 183.547 59.004C182.969 59.6022 182.052 59.8704 180.819 59.801L180.596 59.7885L180.453 62.3424L181.055 62.3762C183.046 62.4882 184.626 62.0778 185.754 61.1572C186.878 60.2395 187.495 58.9367 187.588 57.2839C187.684 55.6001 187.234 54.2197 186.253 53.1813ZM180.733 62.0937L180.847 60.0662C182.139 60.1317 183.111 59.8362 183.738 59.1862C184.22 58.6861 184.49 57.9881 184.539 57.1125C184.596 56.1076 184.35 55.3005 183.81 54.7131C183.264 54.1255 182.398 53.806 181.162 53.7364L177.636 53.5382C176.476 53.473 175.575 52.5104 175.57 51.3626L181.656 51.7048C183.646 51.8167 185.129 52.3744 186.062 53.3621C186.992 54.3455 187.417 55.6604 187.327 57.2693C187.238 58.8445 186.654 60.0834 185.59 60.9524C184.515 61.8303 182.994 62.2208 181.071 62.1127L180.733 62.0937Z" fill="white"/>
    <path d="M175.534 59.851L175.091 59.826L174.609 68.4047L177.345 68.5585L177.698 62.2725C177.769 61.008 176.799 59.9221 175.534 59.851Z" fill="white"/>
    <path d="M175.549 59.5872L174.842 59.5475L174.33 68.6525L177.593 68.836L177.961 62.2864C178.04 60.8773 176.958 59.6665 175.549 59.5872ZM177.344 68.5576L174.608 68.4037L175.09 59.8259L175.534 59.8508C176.797 59.9219 177.769 61.0078 177.697 62.2724L177.344 68.5576Z" fill="white"/>
    <path d="M223.649 70.2093L223.596 71.1591L226.357 71.3143L226.54 68.0719L226.071 68.0455C224.806 67.9744 223.72 68.9447 223.649 70.2093Z" fill="white"/>
    <path d="M223.385 70.1946L223.317 71.408L226.605 71.5929L226.817 67.8232L226.085 67.782C224.675 67.7028 223.464 68.7846 223.385 70.1946ZM226.357 71.3137L223.595 71.1584L223.648 70.2086C223.72 68.9448 224.805 67.9737 226.07 68.0448L226.539 68.0712L226.357 71.3137Z" fill="white"/>
    <path d="M221.901 53.9676L218.749 53.7904L223.78 64.8915L225.485 64.9874C226.343 65.0357 227.149 64.6066 227.588 63.8676L233.097 54.5971L230.019 54.4241L225.49 62.5572L221.901 53.9676Z" fill="white"/>
    <path d="M225.524 61.9542L222.081 53.7134L218.329 53.5024L223.572 65.0731L223.605 65.1463L225.47 65.2511C226.427 65.3049 227.325 64.8265 227.815 64.003L233.545 54.3588L229.868 54.152L225.524 61.9542ZM233.096 54.5972L227.588 63.8685C227.149 64.6075 226.344 65.0366 225.485 64.9883L223.78 64.8924L218.749 53.7913L221.901 53.9685L225.49 62.5581L230.019 54.425L233.096 54.598L233.096 54.5972Z" fill="white"/>
    <path d="M192.975 52.3413L190.239 52.1875L189.557 64.3137L190 64.3386C191.264 64.4097 192.351 63.4394 192.422 62.1749L192.975 52.3413Z" fill="white"/>
    <path d="M192.685 62.1897L193.252 52.0925L189.989 51.9091L189.278 64.5625L189.985 64.6022C191.394 64.6815 192.605 63.5996 192.685 62.1897ZM190 64.3386L189.556 64.3137L190.238 52.1875L192.974 52.3413L192.421 62.1749C192.35 63.4394 191.263 64.4097 190 64.3386Z" fill="white"/>
    <path d="M196.092 67.7056L189.387 67.3286L189.28 69.229L198.013 69.72C198.004 68.6569 197.168 67.7661 196.092 67.7056Z" fill="white"/>
    <path d="M189.001 69.4777L198.265 69.9986L198.273 69.8668C198.344 68.6006 197.372 67.513 196.106 67.4418L189.138 67.05L189.001 69.4777ZM189.387 67.3285L196.091 67.7055C197.167 67.766 198.004 68.6568 198.013 69.7199L189.28 69.2289L189.387 67.3285Z" fill="white"/>
    <path d="M224.638 49.1166C224.894 49.4971 225.137 49.888 225.4 50.2632" stroke="white" stroke-width="1.68649" stroke-miterlimit="1.5" stroke-linecap="round" stroke-linejoin="round"/>
    <path d="M230.839 47.6439C230.707 48.1361 230.615 48.6372 230.491 49.1309" stroke="white" stroke-width="1.68649" stroke-miterlimit="1.5" stroke-linecap="round" stroke-linejoin="round"/>
    <path d="M234.661 52.0665C235.3 51.7953 235.909 51.4601 236.547 51.1875" stroke="white" stroke-width="1.68649" stroke-miterlimit="1.5" stroke-linecap="round" stroke-linejoin="round"/>
    <path d="M236.725 58.2795C237.397 58.4192 238.08 58.5717 238.763 58.6508" stroke="white" stroke-width="1.68649" stroke-miterlimit="1.5" stroke-linecap="round" stroke-linejoin="round"/>
    <path fill-rule="evenodd" clip-rule="evenodd" d="M303.09 77.0469C305.167 70.8397 307.063 64.5001 308.897 58.2205C305.499 59.4956 302.53 61.1783 299.427 63.0671C297.985 60.2583 294.85 56.4328 292.509 54.3356C289.447 56.9784 287.195 59.4403 284.698 62.5257C282.353 60.3759 279.971 58.6541 277.154 57.1482C277.709 63.2598 278.665 69.2957 279.963 75.2921C283.028 75.2527 285.72 74.6099 288.791 74.7339C294.069 74.9466 297.947 75.6959 303.09 77.0469Z" stroke="url(#paint2_linear_1_111)" stroke-width="3.4417" stroke-miterlimit="1.5" stroke-linecap="round" stroke-linejoin="round"/>
    <path d="M348.564 74.541L359.229 75.1407L355.008 61.4518L351.465 61.2526L347.835 69.5381L348.929 69.5995C349.902 69.6543 350.807 69.0857 351.18 68.1843L353.102 63.5363L355.828 73.0366L346.534 72.514L344.16 77.9331C345.947 77.9559 347.585 76.8868 348.277 75.2261L348.564 74.541Z" fill="white"/>
    <path d="M355.205 61.1984L351.295 60.9785L347.439 69.7794L348.912 69.8622C349.998 69.9232 351.006 69.2892 351.422 68.2844L353.054 64.3358L355.469 72.7519L346.364 72.24L343.763 78.1792L343.952 78.1899C345.924 78.3007 347.76 77.1506 348.52 75.3278L348.734 74.8142L359.59 75.4246L355.205 61.1984ZM344.159 77.933L346.533 72.5139L355.827 73.0365L353.1 63.5362L351.178 68.1842C350.805 69.0856 349.901 69.6541 348.927 69.5994L347.833 69.5379L351.463 61.2524L355.007 61.4517L359.226 75.1404L348.562 74.5408L348.276 75.2267C347.585 76.8867 345.946 77.9557 344.159 77.933Z" fill="white"/>
    <path d="M331.098 65.353C331.188 63.7442 330.763 62.4293 329.833 61.4459C328.9 60.4582 327.418 59.9005 325.428 59.7886L319.342 59.4464C319.347 60.5934 320.247 61.5568 321.408 61.622L324.934 61.8203C326.17 61.8898 327.036 62.2093 327.582 62.797C328.122 63.3843 328.368 64.1914 328.311 65.1964C328.262 66.0727 327.992 66.7707 327.51 67.2701C326.883 67.9192 325.911 68.2155 324.619 68.1501L324.505 70.1775L324.843 70.1965C326.766 70.3047 328.286 69.9141 329.362 69.0362C330.425 68.168 331.009 66.9283 331.098 65.353Z" fill="white"/>
    <path d="M330.026 61.2652C329.045 60.2268 327.503 59.6416 325.444 59.5258L319.09 59.1686L319.082 59.3004C319.007 60.6504 320.043 61.8098 321.392 61.8856L324.918 62.0839C326.083 62.1494 326.89 62.4416 327.388 62.9768C327.878 63.5092 328.1 64.2517 328.047 65.1823C328.002 65.9931 327.757 66.6349 327.319 67.0879C326.741 67.6861 325.824 67.9542 324.591 67.8849L324.369 67.8724L324.225 70.4262L324.827 70.4601C326.818 70.572 328.399 70.1617 329.527 69.241C330.651 68.3234 331.267 67.0206 331.36 65.3678C331.456 63.684 331.007 62.3036 330.026 61.2652ZM324.505 70.1775L324.619 68.1501C325.911 68.2155 326.884 67.92 327.51 67.2701C327.993 66.7699 328.263 66.0719 328.312 65.1964C328.368 64.1915 328.123 63.3843 327.582 62.797C327.037 62.2094 326.171 61.8898 324.934 61.8203L321.408 61.622C320.248 61.5568 319.347 60.5942 319.343 59.4464L325.429 59.7886C327.419 59.9005 328.901 60.4583 329.835 61.4459C330.764 62.4294 331.189 63.7443 331.099 65.3531C331.01 66.9284 330.426 68.1673 329.362 69.0362C328.287 69.9142 326.767 70.3047 324.844 70.1966L324.505 70.1775Z" fill="white"/>
    <path d="M319.307 67.9348L318.864 67.9099L318.381 76.4885L321.117 76.6424L321.471 70.3564C321.542 69.0918 320.571 68.0059 319.307 67.9348Z" fill="white"/>
    <path d="M319.321 67.6711L318.614 67.6313L318.102 76.7364L321.365 76.9199L321.734 70.3703C321.813 68.9611 320.731 67.7504 319.321 67.6711ZM321.116 76.6414L318.381 76.4876L318.863 67.9098L319.306 67.9347C320.57 68.0058 321.541 69.0917 321.47 70.3563L321.116 76.6414Z" fill="white"/>
    <path d="M367.422 78.2931L367.368 79.2429L370.13 79.3982L370.312 76.1558L369.843 76.1294C368.579 76.0583 367.493 77.0286 367.422 78.2931Z" fill="white"/>
    <path d="M367.158 78.2784L367.089 79.4918L370.378 79.6768L370.59 75.9071L369.858 75.8659C368.448 75.7866 367.237 76.8685 367.158 78.2784ZM370.129 79.3975L367.368 79.2422L367.421 78.2924C367.492 77.0287 368.578 76.0576 369.843 76.1287L370.312 76.1551L370.129 79.3975Z" fill="white"/>
    <path d="M365.673 62.0515L362.521 61.8743L367.552 72.9754L369.258 73.0713C370.116 73.1195 370.922 72.6905 371.361 71.9515L376.869 62.681L373.791 62.5079L369.262 70.641L365.673 62.0515Z" fill="white"/>
    <path d="M369.296 70.038L365.854 61.7973L362.102 61.5863L367.345 73.157L367.378 73.2301L369.243 73.335C370.2 73.3888 371.098 72.9104 371.587 72.0869L377.318 62.4426L373.641 62.2359L369.296 70.038ZM376.869 62.6811L371.361 71.9523C370.922 72.6914 370.116 73.1205 369.258 73.0722L367.552 72.9763L362.521 61.8751L365.673 62.0524L369.262 70.6419L373.791 62.5088L376.869 62.6819L376.869 62.6811Z" fill="white"/>
    <path d="M336.747 60.4252L334.011 60.2714L333.329 72.3976L333.773 72.4225C335.037 72.4935 336.123 71.5233 336.194 70.2588L336.747 60.4252Z" fill="white"/>
    <path d="M336.457 70.2736L337.025 60.1764L333.762 59.9929L333.05 72.6463L333.757 72.6861C335.166 72.7653 336.378 71.6835 336.457 70.2736ZM333.772 72.4225L333.329 72.3976L334.011 60.2714L336.746 60.4252L336.194 70.2588C336.122 71.5233 335.036 72.4935 333.772 72.4225Z" fill="white"/>
    <path d="M339.864 75.7894L333.16 75.4125L333.053 77.3129L341.786 77.8039C341.777 76.7408 340.94 75.85 339.864 75.7894Z" fill="white"/>
    <path d="M332.774 77.5615L342.038 78.0824L342.045 77.9506C342.117 76.6845 341.145 75.5969 339.879 75.5257L332.91 75.1339L332.774 77.5615ZM333.159 75.4123L339.864 75.7893C340.94 75.8498 341.776 76.7407 341.785 77.8038L333.052 77.3128L333.159 75.4123Z" fill="white"/>
    <path d="M368.411 57.2004C368.666 57.5809 368.909 57.9719 369.172 58.3471" stroke="white" stroke-width="1.68649" stroke-miterlimit="1.5" stroke-linecap="round" stroke-linejoin="round"/>
    <path d="M374.611 55.7278C374.48 56.22 374.387 56.721 374.263 57.2147" stroke="white" stroke-width="1.68649" stroke-miterlimit="1.5" stroke-linecap="round" stroke-linejoin="round"/>
    <path d="M378.434 60.1503C379.072 59.8791 379.682 59.544 380.319 59.2713" stroke="white" stroke-width="1.68649" stroke-miterlimit="1.5" stroke-linecap="round" stroke-linejoin="round"/>
    <path d="M380.497 66.3634C381.17 66.5031 381.852 66.6556 382.535 66.7347" stroke="white" stroke-width="1.68649" stroke-miterlimit="1.5" stroke-linecap="round" stroke-linejoin="round"/>
    <path fill-rule="evenodd" clip-rule="evenodd" d="M446.863 85.1308C448.94 78.9236 450.836 72.584 452.669 66.3044C449.272 67.5794 446.303 69.2622 443.2 71.151C441.758 68.3422 438.623 64.5166 436.281 62.4194C433.22 65.0623 430.968 67.5242 428.471 70.6096C426.126 68.4597 423.744 66.7379 420.927 65.2321C421.482 71.3437 422.438 77.3796 423.736 83.376C426.801 83.3366 429.493 82.6938 432.564 82.8178C437.842 83.0304 441.72 83.7798 446.863 85.1308Z" stroke="url(#paint3_linear_1_111)" stroke-width="3.4417" stroke-miterlimit="1.5" stroke-linecap="round" stroke-linejoin="round"/>
    <path d="M492.337 82.6249L503.002 83.2245L498.781 69.5357L495.238 69.3365L491.608 77.6219L492.702 77.6834C493.675 77.7382 494.58 77.1696 494.953 76.2682L496.875 71.6202L499.601 81.1205L490.307 80.5979L487.933 86.017C489.719 86.0397 491.358 84.9707 492.05 83.31L492.337 82.6249Z" fill="white"/>
    <path d="M498.978 69.2823L495.068 69.0624L491.212 77.8632L492.685 77.9461C493.771 78.0071 494.779 77.373 495.195 76.3683L496.827 72.4196L499.242 80.8358L490.137 80.3238L487.536 86.2631L487.725 86.2737C489.697 86.3846 491.533 85.2345 492.293 83.4117L492.507 82.898L503.363 83.5084L498.978 69.2823ZM487.932 86.0169L490.306 80.5978L499.6 81.1203L496.873 71.62L494.951 76.268C494.578 77.1694 493.674 77.738 492.7 77.6832L491.606 77.6218L495.236 69.3363L498.78 69.5355L502.999 83.2243L492.335 82.6247L492.049 83.3106C491.358 84.9706 489.719 86.0396 487.932 86.0169Z" fill="white"/>
    <path d="M474.871 73.4369C474.961 71.8281 474.536 70.5132 473.606 69.5297C472.673 68.5421 471.191 67.9843 469.201 67.8724L463.115 67.5303C463.12 68.6773 464.02 69.6406 465.181 69.7059L468.707 69.9041C469.943 69.9737 470.809 70.2932 471.355 70.8808C471.895 71.4682 472.141 72.2753 472.084 73.2802C472.035 74.1566 471.765 74.8546 471.283 75.3539C470.656 76.0031 469.684 76.2994 468.392 76.2339L468.278 78.2614L468.616 78.2804C470.539 78.3885 472.059 77.998 473.135 77.1201C474.198 76.2519 474.782 75.0122 474.871 73.4369Z" fill="white"/>
    <path d="M473.799 69.349C472.818 68.3106 471.276 67.7255 469.217 67.6097L462.863 67.2524L462.855 67.3842C462.779 68.7343 463.816 69.8936 465.165 69.9695L468.691 70.1677C469.856 70.2332 470.663 70.5254 471.161 71.0606C471.651 71.5931 471.873 72.3356 471.82 73.2662C471.775 74.077 471.53 74.7187 471.092 75.1717C470.514 75.7699 469.597 76.0381 468.364 75.9688L468.142 75.9562L467.998 78.5101L468.6 78.544C470.591 78.6559 472.172 78.2455 473.3 77.3249C474.424 76.4072 475.04 75.1044 475.133 73.4517C475.229 71.7678 474.78 70.3875 473.799 69.349ZM468.278 78.2614L468.392 76.234C469.684 76.2994 470.657 76.0039 471.283 75.354C471.766 74.8538 472.036 74.1558 472.085 73.2803C472.141 72.2753 471.896 71.4682 471.355 70.8809C470.81 70.2932 469.944 69.9737 468.707 69.9042L465.181 69.7059C464.021 69.6407 463.12 68.6781 463.116 67.5303L469.202 67.8725C471.192 67.9844 472.674 68.5421 473.608 69.5298C474.537 70.5132 474.962 71.8281 474.872 73.437C474.783 75.0123 474.199 76.2512 473.135 77.1201C472.06 77.998 470.539 78.3885 468.617 78.2804L468.278 78.2614Z" fill="white"/>
    <path d="M463.08 76.0187L462.636 75.9938L462.154 84.5724L464.89 84.7262L465.244 78.4402C465.315 77.1757 464.344 76.0898 463.08 76.0187Z" fill="white"/>
    <path d="M463.094 75.755L462.387 75.7152L461.875 84.8202L465.138 85.0037L465.506 78.4541C465.586 77.045 464.504 75.8342 463.094 75.755ZM464.889 84.7253L462.153 84.5715L462.636 75.9936L463.079 76.0186C464.343 76.0896 465.314 77.1756 465.243 78.4401L464.889 84.7253Z" fill="white"/>
    <path d="M511.195 86.377L511.141 87.3268L513.903 87.4821L514.085 84.2396L513.616 84.2133C512.352 84.1422 511.266 85.1124 511.195 86.377Z" fill="white"/>
    <path d="M510.93 86.3623L510.862 87.5757L514.151 87.7606L514.363 83.9909L513.63 83.9498C512.221 83.8705 511.01 84.9523 510.93 86.3623ZM513.902 87.4814L511.141 87.3261L511.194 86.3763C511.265 85.1126 512.351 84.1415 513.616 84.2126L514.085 84.2389L513.902 87.4814Z" fill="white"/>
    <path d="M509.446 70.1354L506.294 69.9581L511.325 81.0593L513.031 81.1552C513.889 81.2034 514.695 80.7743 515.134 80.0353L520.642 70.7649L517.564 70.5918L513.035 78.7249L509.446 70.1354Z" fill="white"/>
    <path d="M513.069 78.1219L509.627 69.8811L505.875 69.6702L511.118 81.2408L511.151 81.314L513.016 81.4189C513.973 81.4727 514.871 80.9943 515.36 80.1707L521.091 70.5265L517.414 70.3198L513.069 78.1219ZM520.642 70.7649L515.134 80.0362C514.695 80.7752 513.889 81.2043 513.031 81.156L511.325 81.0602L506.294 69.959L509.446 70.1362L513.035 78.7258L517.564 70.5927L520.642 70.7657L520.642 70.7649Z" fill="white"/>
    <path d="M480.52 68.5091L477.784 68.3552L477.102 80.4814L477.546 80.5064C478.809 80.5774 479.896 79.6072 479.967 78.3426L480.52 68.5091Z" fill="white"/>
    <path d="M480.23 78.3574L480.798 68.2603L477.535 68.0768L476.823 80.7302L477.53 80.77C478.939 80.8492 480.151 79.7674 480.23 78.3574ZM477.545 80.5063L477.102 80.4814L477.783 68.3552L480.519 68.5091L479.967 78.3426C479.895 79.6072 478.809 80.5774 477.545 80.5063Z" fill="white"/>
    <path d="M483.637 83.8733L476.933 83.4963L476.826 85.3967L485.559 85.8878C485.55 84.8247 484.713 83.9338 483.637 83.8733Z" fill="white"/>
    <path d="M476.547 85.6454L485.811 86.1663L485.818 86.0345C485.889 84.7683 484.918 83.6808 483.652 83.6096L476.683 83.2178L476.547 85.6454ZM476.932 83.4962L483.637 83.8732C484.713 83.9337 485.549 84.8245 485.558 85.8876L476.825 85.3966L476.932 83.4962Z" fill="white"/>
    <path d="M512.184 65.2843C512.439 65.6648 512.682 66.0557 512.945 66.431" stroke="white" stroke-width="1.68649" stroke-miterlimit="1.5" stroke-linecap="round" stroke-linejoin="round"/>
    <path d="M518.384 63.8116C518.253 64.3038 518.16 64.8049 518.036 65.2986" stroke="white" stroke-width="1.68649" stroke-miterlimit="1.5" stroke-linecap="round" stroke-linejoin="round"/>
    <path d="M522.207 68.2342C522.845 67.963 523.454 67.6279 524.092 67.3552" stroke="white" stroke-width="1.68649" stroke-miterlimit="1.5" stroke-linecap="round" stroke-linejoin="round"/>
    <path d="M524.27 74.4472C524.943 74.5869 525.625 74.7394 526.308 74.8186" stroke="white" stroke-width="1.68649" stroke-miterlimit="1.5" stroke-linecap="round" stroke-linejoin="round"/>
    <path fill-rule="evenodd" clip-rule="evenodd" d="M590.634 93.2145C592.712 87.0073 594.607 80.6677 596.441 74.3881C593.044 75.6632 590.074 77.3459 586.972 79.2347C585.53 76.4259 582.394 72.6004 580.053 70.5032C576.991 73.146 574.739 75.6079 572.243 78.6933C569.897 76.5435 567.516 74.8217 564.699 73.3158C565.254 79.4274 566.21 85.4633 567.508 91.4597C570.572 91.4203 573.264 90.7775 576.336 90.9015C581.613 91.1142 585.492 91.8635 590.634 93.2145Z" stroke="url(#paint4_linear_1_111)" stroke-width="3.4417" stroke-miterlimit="1.5" stroke-linecap="round" stroke-linejoin="round"/>
    <path d="M636.109 90.7086L646.773 91.3083L642.553 77.6195L639.009 77.4202L635.379 85.7057L636.473 85.7671C637.447 85.8219 638.351 85.2533 638.724 84.3519L640.646 79.7039L643.373 89.2042L634.078 88.6816L631.704 94.1007C633.491 94.1235 635.13 93.0545 635.822 91.3937L636.109 90.7086Z" fill="white"/>
    <path d="M642.75 77.366L638.839 77.1461L634.984 85.947L636.457 86.0298C637.542 86.0908 638.551 85.4568 638.966 84.452L640.599 80.5034L643.014 88.9195L633.909 88.4076L631.308 94.3468L631.497 94.3575C633.468 94.4683 635.304 93.3182 636.064 91.4954L636.278 90.9818L647.135 91.5922L642.75 77.366ZM631.704 94.1006L634.077 88.6815L643.371 89.2041L640.644 79.7038L638.723 84.3518C638.35 85.2532 637.445 85.8217 636.472 85.767L635.378 85.7055L639.008 77.42L642.551 77.6193L646.771 91.3081L636.106 90.7084L635.82 91.3943C635.129 93.0543 633.49 94.1233 631.704 94.1006Z" fill="white"/>
    <path d="M618.642 81.5206C618.733 79.9118 618.307 78.5969 617.378 77.6135C616.444 76.6258 614.962 76.0681 612.972 75.9562L606.887 75.614C606.891 76.761 607.791 77.7244 608.952 77.7896L612.478 77.9879C613.715 78.0574 614.581 78.3769 615.126 78.9646C615.667 79.5519 615.912 80.3591 615.856 81.364C615.807 82.2403 615.537 82.9383 615.054 83.4377C614.428 84.0868 613.455 84.3831 612.163 84.3177L612.049 86.3451L612.388 86.3641C614.311 86.4723 615.83 86.0817 616.906 85.2038C617.969 84.3356 618.554 83.0959 618.642 81.5206Z" fill="white"/>
    <path d="M617.57 77.4328C616.589 76.3944 615.048 75.8092 612.988 75.6934L606.634 75.3362L606.627 75.468C606.551 76.818 607.588 77.9774 608.937 78.0532L612.463 78.2515C613.628 78.317 614.435 78.6092 614.932 79.1444C615.422 79.6768 615.644 80.4193 615.592 81.3499C615.546 82.1607 615.301 82.8025 614.864 83.2555C614.286 83.8537 613.368 84.1218 612.136 84.0525L611.913 84.04L611.769 86.5938L612.372 86.6277C614.362 86.7396 615.943 86.3293 617.071 85.4086C618.195 84.491 618.812 83.1882 618.905 81.5354C619.001 79.8516 618.551 78.4712 617.57 77.4328ZM612.049 86.3451L612.163 84.3177C613.456 84.3831 614.428 84.0876 615.055 83.4377C615.537 82.9375 615.807 82.2395 615.856 81.364C615.913 80.3591 615.667 79.5519 615.127 78.9646C614.581 78.377 613.715 78.0574 612.478 77.9879L608.952 77.7896C607.793 77.7244 606.891 76.7618 606.887 75.614L612.973 75.9563C614.963 76.0681 616.446 76.6259 617.379 77.6135C618.309 78.597 618.734 79.9119 618.643 81.5207C618.555 83.096 617.971 84.3349 616.907 85.2038C615.831 86.0818 614.311 86.4723 612.388 86.3642L612.049 86.3451Z" fill="white"/>
    <path d="M606.851 84.1024L606.408 84.0775L605.926 92.6561L608.662 92.81L609.015 86.524C609.086 85.2594 608.116 84.1735 606.851 84.1024Z" fill="white"/>
    <path d="M606.865 83.8387L606.158 83.799L605.647 92.904L608.91 93.0875L609.278 86.5379C609.357 85.1287 608.275 83.918 606.865 83.8387ZM608.661 92.809L605.925 92.6552L606.407 84.0774L606.851 84.1023C608.114 84.1734 609.085 85.2593 609.014 86.5239L608.661 92.809Z" fill="white"/>
    <path d="M654.966 94.4607L654.913 95.4105L657.674 95.5658L657.857 92.3234L657.388 92.297C656.123 92.2259 655.037 93.1962 654.966 94.4607Z" fill="white"/>
    <path d="M654.702 94.446L654.634 95.6594L657.923 95.8444L658.134 92.0747L657.402 92.0335C655.992 91.9542 654.781 93.0361 654.702 94.446ZM657.674 95.5651L654.912 95.4098L654.966 94.46C655.037 93.1963 656.123 92.2252 657.387 92.2963L657.856 92.3227L657.674 95.5651Z" fill="white"/>
    <path d="M653.218 78.2191L650.066 78.0419L655.097 89.143L656.802 89.2389C657.66 89.2871 658.466 88.8581 658.905 88.1191L664.413 78.8486L661.336 78.6755L656.807 86.8087L653.218 78.2191Z" fill="white"/>
    <path d="M656.841 86.2056L653.398 77.9649L649.646 77.7539L654.889 89.3246L654.922 89.3977L656.787 89.5026C657.744 89.5564 658.642 89.078 659.132 88.2545L664.862 78.6103L661.185 78.4035L656.841 86.2056ZM664.413 78.8487L658.905 88.12C658.466 88.859 657.661 89.2881 656.802 89.2398L655.097 89.1439L650.066 78.0428L653.218 78.22L656.807 86.8095L661.336 78.6764L664.413 78.8495L664.413 78.8487Z" fill="white"/>
    <path d="M624.292 76.5928L621.556 76.439L620.874 88.5652L621.317 88.5901C622.581 88.6612 623.668 87.6909 623.739 86.4264L624.292 76.5928Z" fill="white"/>
    <path d="M624.002 86.4412L624.569 76.344L621.306 76.1605L620.595 88.814L621.302 88.8537C622.711 88.9329 623.922 87.8511 624.002 86.4412ZM621.316 88.5901L620.873 88.5652L621.555 76.439L624.291 76.5928L623.738 86.4264C623.667 87.6909 622.58 88.6611 621.316 88.5901Z" fill="white"/>
    <path d="M627.409 91.9571L620.704 91.5801L620.597 93.4805L629.33 93.9715C629.321 92.9084 628.485 92.0176 627.409 91.9571Z" fill="white"/>
    <path d="M620.318 93.7291L629.582 94.25L629.59 94.1182C629.661 92.8521 628.689 91.7645 627.423 91.6933L620.455 91.3015L620.318 93.7291ZM620.704 91.5799L627.408 91.9569C628.484 92.0174 629.32 92.9083 629.33 93.9714L620.597 93.4804L620.704 91.5799Z" fill="white"/>
    <path d="M655.955 73.368C656.211 73.7485 656.454 74.1395 656.717 74.5147" stroke="white" stroke-width="1.68649" stroke-miterlimit="1.5" stroke-linecap="round" stroke-linejoin="round"/>
    <path d="M662.156 71.8954C662.024 72.3876 661.932 72.8886 661.807 73.3823" stroke="white" stroke-width="1.68649" stroke-miterlimit="1.5" stroke-linecap="round" stroke-linejoin="round"/>
    <path d="M665.978 76.3179C666.617 76.0467 667.226 75.7116 667.864 75.4389" stroke="white" stroke-width="1.68649" stroke-miterlimit="1.5" stroke-linecap="round" stroke-linejoin="round"/>
    <path d="M668.042 82.531C668.714 82.6707 669.397 82.8232 670.08 82.9023" stroke="white" stroke-width="1.68649" stroke-miterlimit="1.5" stroke-linecap="round" stroke-linejoin="round"/>
    <path fill-rule="evenodd" clip-rule="evenodd" d="M734.407 101.298C736.485 95.0912 738.38 88.7516 740.214 82.472C736.817 83.747 733.847 85.4298 730.745 87.3186C729.303 84.5098 726.167 80.6842 723.826 78.587C720.764 81.2299 718.512 83.6918 716.016 86.7772C713.67 84.6273 711.289 82.9055 708.471 81.3997C709.027 87.5113 709.983 93.5472 711.28 99.5436C714.345 99.5042 717.037 98.8614 720.109 98.9854C725.386 99.198 729.265 99.9474 734.407 101.298Z" stroke="url(#paint5_linear_1_111)" stroke-width="3.4417" stroke-miterlimit="1.5" stroke-linecap="round" stroke-linejoin="round"/>
    <path d="M779.882 98.7925L790.546 99.3921L786.326 85.7033L782.782 85.5041L779.152 93.7895L780.246 93.851C781.22 93.9058 782.124 93.3372 782.497 92.4358L784.419 87.7878L787.145 97.2881L777.851 96.7655L775.477 102.185C777.264 102.207 778.903 101.138 779.595 99.4776L779.882 98.7925Z" fill="white"/>
    <path d="M786.523 85.4499L782.612 85.23L778.757 94.0308L780.23 94.1137C781.315 94.1747 782.324 93.5406 782.739 92.5359L784.372 88.5872L786.787 97.0034L777.682 96.4914L775.081 102.431L775.27 102.441C777.241 102.552 779.077 101.402 779.837 99.5793L780.051 99.0656L790.907 99.676L786.523 85.4499ZM775.477 102.184L777.85 96.7654L787.144 97.2879L784.417 87.7876L782.496 92.4356C782.123 93.337 781.218 93.9056 780.244 93.8508L779.151 93.7894L782.78 85.5039L786.324 85.7031L790.544 99.3919L779.879 98.7923L779.593 99.4782C778.902 101.138 777.263 102.207 775.477 102.184Z" fill="white"/>
    <path d="M762.415 89.6045C762.506 87.9957 762.08 86.6808 761.151 85.6973C760.217 84.7097 758.735 84.1519 756.745 84.04L750.66 83.6979C750.664 84.8449 751.564 85.8082 752.725 85.8735L756.251 86.0717C757.488 86.1413 758.354 86.4608 758.899 87.0484C759.44 87.6358 759.685 88.4429 759.629 89.4478C759.58 90.3242 759.31 91.0222 758.827 91.5215C758.201 92.1707 757.228 92.467 755.936 92.4015L755.822 94.429L756.161 94.448C758.084 94.5561 759.603 94.1656 760.679 93.2877C761.742 92.4195 762.327 91.1798 762.415 89.6045Z" fill="white"/>
    <path d="M761.343 85.5166C760.362 84.4782 758.82 83.8931 756.761 83.7773L750.407 83.42L750.4 83.5519C750.324 84.9019 751.361 86.0612 752.71 86.1371L756.236 86.3353C757.401 86.4008 758.208 86.693 758.705 87.2282C759.195 87.7607 759.417 88.5032 759.365 89.4338C759.319 90.2446 759.074 90.8863 758.637 91.3393C758.059 91.9375 757.141 92.2057 755.909 92.1364L755.686 92.1238L755.542 94.6777L756.145 94.7116C758.135 94.8235 759.716 94.4131 760.844 93.4925C761.968 92.5748 762.585 91.272 762.678 89.6193C762.774 87.9354 762.324 86.5551 761.343 85.5166ZM755.822 94.429L755.936 92.4016C757.229 92.467 758.201 92.1715 758.827 91.5216C759.31 91.0214 759.58 90.3234 759.629 89.4479C759.686 88.4429 759.44 87.6358 758.899 87.0485C758.354 86.4608 757.488 86.1413 756.251 86.0718L752.725 85.8735C751.566 85.8083 750.664 84.8457 750.66 83.6979L756.746 84.0401C758.736 84.152 760.219 84.7097 761.152 85.6974C762.082 86.6808 762.507 87.9957 762.416 89.6046C762.328 91.1799 761.744 92.4188 760.679 93.2877C759.604 94.1656 758.084 94.5562 756.161 94.448L755.822 94.429Z" fill="white"/>
    <path d="M750.624 92.1863L750.181 92.1614L749.699 100.74L752.435 100.894L752.788 94.6078C752.859 93.3433 751.889 92.2574 750.624 92.1863Z" fill="white"/>
    <path d="M750.638 91.9226L749.931 91.8828L749.419 100.988L752.683 101.171L753.051 94.6217C753.13 93.2126 752.048 92.0018 750.638 91.9226ZM752.434 100.893L749.698 100.739L750.18 92.1612L750.624 92.1862C751.887 92.2572 752.858 93.3432 752.787 94.6077L752.434 100.893Z" fill="white"/>
    <path d="M798.739 102.545L798.686 103.494L801.447 103.65L801.629 100.407L801.161 100.381C799.896 100.31 798.81 101.28 798.739 102.545Z" fill="white"/>
    <path d="M798.475 102.53L798.407 103.743L801.695 103.928L801.907 100.159L801.175 100.117C799.765 100.038 798.554 101.12 798.475 102.53ZM801.447 103.649L798.685 103.494L798.739 102.544C798.81 101.28 799.896 100.309 801.16 100.38L801.629 100.407L801.447 103.649Z" fill="white"/>
    <path d="M796.991 86.303L793.839 86.1257L798.87 97.2269L800.575 97.3228C801.433 97.371 802.239 96.9419 802.678 96.2029L808.186 86.9325L805.108 86.7594L800.58 94.8925L796.991 86.303Z" fill="white"/>
    <path d="M800.613 94.2895L797.171 86.0487L793.419 85.8378L798.662 97.4084L798.695 97.4816L800.56 97.5865C801.517 97.6403 802.415 97.1619 802.905 96.3384L808.635 86.6941L804.958 86.4874L800.613 94.2895ZM808.186 86.9325L802.678 96.2038C802.239 96.9428 801.434 97.3719 800.575 97.3236L798.87 97.2278L793.839 86.1266L796.991 86.3039L800.58 94.8934L805.109 86.7603L808.186 86.9333L808.186 86.9325Z" fill="white"/>
    <path d="M768.065 84.6767L765.329 84.5228L764.647 96.649L765.09 96.674C766.354 96.745 767.441 95.7748 767.512 94.5102L768.065 84.6767Z" fill="white"/>
    <path d="M767.775 94.525L768.342 84.4279L765.079 84.2444L764.368 96.8978L765.075 96.9376C766.484 97.0168 767.695 95.935 767.775 94.525ZM765.089 96.6739L764.646 96.649L765.328 84.5228L768.064 84.6767L767.511 94.5102C767.44 95.7748 766.353 96.745 765.089 96.6739Z" fill="white"/>
    <path d="M771.182 100.041L764.477 99.6639L764.37 101.564L773.103 102.055C773.094 100.992 772.258 100.101 771.182 100.041Z" fill="white"/>
    <path d="M764.091 101.813L773.355 102.334L773.363 102.202C773.434 100.936 772.462 99.8484 771.196 99.7772L764.228 99.3854L764.091 101.813ZM764.477 99.6638L771.181 100.041C772.257 100.101 773.093 100.992 773.103 102.055L764.37 101.564L764.477 99.6638Z" fill="white"/>
    <path d="M799.728 81.4519C799.984 81.8324 800.227 82.2233 800.49 82.5986" stroke="white" stroke-width="1.68649" stroke-miterlimit="1.5" stroke-linecap="round" stroke-linejoin="round"/>
    <path d="M805.929 79.9792C805.797 80.4715 805.705 80.9725 805.58 81.4662" stroke="white" stroke-width="1.68649" stroke-miterlimit="1.5" stroke-linecap="round" stroke-linejoin="round"/>
    <path d="M809.751 84.4018C810.39 84.1306 810.999 83.7955 811.637 83.5228" stroke="white" stroke-width="1.68649" stroke-miterlimit="1.5" stroke-linecap="round" stroke-linejoin="round"/>
    <path d="M811.815 90.6148C812.487 90.7545 813.169 90.907 813.853 90.9862" stroke="white" stroke-width="1.68649" stroke-miterlimit="1.5" stroke-linecap="round" stroke-linejoin="round"/>
    <path fill-rule="evenodd" clip-rule="evenodd" d="M878.18 109.382C880.258 103.175 882.153 96.8354 883.987 90.5559C880.59 91.8309 877.62 93.5136 874.518 95.4025C873.076 92.5936 869.94 88.7681 867.599 86.6709C864.537 89.3137 862.285 91.7757 859.789 94.861C857.443 92.7112 855.061 90.9894 852.244 89.4835C852.8 95.5951 853.755 101.631 855.053 107.627C858.118 107.588 860.81 106.945 863.882 107.069C869.159 107.282 873.038 108.031 878.18 109.382Z" stroke="url(#paint6_linear_1_111)" stroke-width="3.4417" stroke-miterlimit="1.5" stroke-linecap="round" stroke-linejoin="round"/>
    <path d="M923.655 106.876L934.319 107.476L930.099 93.7872L926.555 93.5879L922.925 101.873L924.019 101.935C924.993 101.99 925.897 101.421 926.27 100.52L928.192 95.8717L930.918 105.372L921.624 104.849L919.25 110.268C921.037 110.291 922.676 109.222 923.368 107.561L923.655 106.876Z" fill="white"/>
    <path d="M930.296 93.5337L926.385 93.3139L922.53 102.115L924.003 102.198C925.088 102.259 926.097 101.625 926.512 100.62L928.145 96.6711L930.559 105.087L921.454 104.575L918.853 110.515L919.043 110.525C921.014 110.636 922.85 109.486 923.61 107.663L923.824 107.149L934.68 107.76L930.296 93.5337ZM919.25 110.268L921.623 104.849L930.917 105.372L928.19 95.8715L926.269 100.519C925.896 101.421 924.991 101.989 924.017 101.935L922.924 101.873L926.553 93.5878L930.097 93.787L934.317 107.476L923.652 106.876L923.366 107.562C922.675 109.222 921.036 110.291 919.25 110.268Z" fill="white"/>
    <path d="M906.188 97.6884C906.279 96.0795 905.853 94.7646 904.924 93.7812C903.99 92.7935 902.508 92.2358 900.518 92.1239L894.433 91.7817C894.437 92.9287 895.337 93.8921 896.498 93.9573L900.024 94.1556C901.261 94.2251 902.127 94.5447 902.672 95.1323C903.213 95.7196 903.458 96.5268 903.402 97.5317C903.353 98.408 903.082 99.106 902.6 99.6054C901.974 100.255 901.001 100.551 899.709 100.485L899.595 102.513L899.934 102.532C901.856 102.64 903.376 102.249 904.452 101.372C905.515 100.503 906.1 99.2637 906.188 97.6884Z" fill="white"/>
    <path d="M905.116 93.6005C904.135 92.5621 902.593 91.977 900.534 91.8612L894.18 91.5039L894.173 91.6357C894.097 92.9857 895.134 94.1451 896.483 94.2209L900.009 94.4192C901.173 94.4847 901.981 94.7769 902.478 95.3121C902.968 95.8445 903.19 96.587 903.138 97.5177C903.092 98.3285 902.847 98.9702 902.41 99.4232C901.832 100.021 900.914 100.29 899.682 100.22L899.459 100.208L899.315 102.762L899.918 102.795C901.908 102.907 903.489 102.497 904.617 101.576C905.741 100.659 906.358 99.3559 906.451 97.7031C906.547 96.0193 906.097 94.6389 905.116 93.6005ZM899.595 102.513L899.709 100.485C901.001 100.551 901.974 100.255 902.6 99.6054C903.083 99.1053 903.353 98.4072 903.402 97.5317C903.459 96.5268 903.213 95.7197 902.672 95.1323C902.127 94.5447 901.261 94.2252 900.024 94.1556L896.498 93.9574C895.338 93.8922 894.437 92.9296 894.433 91.7818L900.519 92.124C902.509 92.2359 903.992 92.7936 904.925 93.7813C905.854 94.7647 906.28 96.0796 906.189 97.6884C906.101 99.2637 905.517 100.503 904.452 101.372C903.377 102.25 901.857 102.64 899.934 102.532L899.595 102.513Z" fill="white"/>
    <path d="M894.397 100.27L893.954 100.245L893.472 108.824L896.207 108.978L896.561 102.692C896.632 101.427 895.662 100.341 894.397 100.27Z" fill="white"/>
    <path d="M894.411 100.006L893.704 99.9667L893.192 109.072L896.456 109.255L896.824 102.706C896.903 101.296 895.821 100.086 894.411 100.006ZM896.207 108.977L893.471 108.823L893.953 100.245L894.396 100.27C895.66 100.341 896.631 101.427 896.56 102.692L896.207 108.977Z" fill="white"/>
    <path d="M942.512 110.628L942.459 111.578L945.22 111.734L945.402 108.491L944.934 108.465C943.669 108.394 942.583 109.364 942.512 110.628Z" fill="white"/>
    <path d="M942.248 110.614L942.18 111.827L945.468 112.012L945.68 108.242L944.948 108.201C943.538 108.122 942.327 109.204 942.248 110.614ZM945.22 111.733L942.458 111.578L942.512 110.628C942.583 109.364 943.669 108.393 944.933 108.464L945.402 108.49L945.22 111.733Z" fill="white"/>
    <path d="M940.764 94.3868L937.612 94.2096L942.643 105.311L944.348 105.407C945.206 105.455 946.012 105.026 946.451 104.287L951.959 95.0163L948.881 94.8433L944.352 102.976L940.764 94.3868Z" fill="white"/>
    <path d="M944.386 102.373L940.944 94.1326L937.192 93.9216L942.435 105.492L942.468 105.565L944.333 105.67C945.29 105.724 946.188 105.246 946.678 104.422L952.408 94.778L948.731 94.5712L944.386 102.373ZM951.959 95.0164L946.451 104.288C946.012 105.027 945.207 105.456 944.348 105.408L942.643 105.312L937.612 94.2105L940.764 94.3877L944.352 102.977L948.881 94.8441L951.959 95.0172L951.959 95.0164Z" fill="white"/>
    <path d="M911.838 92.7605L909.102 92.6067L908.42 104.733L908.863 104.758C910.127 104.829 911.214 103.859 911.285 102.594L911.838 92.7605Z" fill="white"/>
    <path d="M911.548 102.609L912.115 92.5117L908.852 92.3282L908.141 104.982L908.848 105.021C910.257 105.101 911.468 104.019 911.548 102.609ZM908.862 104.758L908.419 104.733L909.101 92.6067L911.837 92.7605L911.284 102.594C911.213 103.859 910.126 104.829 908.862 104.758Z" fill="white"/>
    <path d="M914.955 108.125L908.25 107.748L908.143 109.648L916.876 110.139C916.867 109.076 916.031 108.185 914.955 108.125Z" fill="white"/>
    <path d="M907.864 109.897L917.128 110.418L917.136 110.286C917.207 109.02 916.235 107.932 914.969 107.861L908.001 107.469L907.864 109.897ZM908.25 107.748L914.954 108.125C916.03 108.185 916.866 109.076 916.875 110.139L908.143 109.648L908.25 107.748Z" fill="white"/>
    <path d="M943.501 89.5358C943.757 89.9162 944 90.3072 944.263 90.6824" stroke="white" stroke-width="1.68649" stroke-miterlimit="1.5" stroke-linecap="round" stroke-linejoin="round"/>
    <path d="M949.702 88.0631C949.57 88.5553 949.477 89.0563 949.353 89.5501" stroke="white" stroke-width="1.68649" stroke-miterlimit="1.5" stroke-linecap="round" stroke-linejoin="round"/>
    <path d="M953.524 92.4857C954.163 92.2145 954.772 91.8793 955.41 91.6067" stroke="white" stroke-width="1.68649" stroke-miterlimit="1.5" stroke-linecap="round" stroke-linejoin="round"/>
    <path d="M955.588 98.6987C956.26 98.8384 956.942 98.9909 957.625 99.07" stroke="white" stroke-width="1.68649" stroke-miterlimit="1.5" stroke-linecap="round" stroke-linejoin="round"/>
    <path fill-rule="evenodd" clip-rule="evenodd" d="M1021.95 117.466C1024.03 111.259 1025.93 104.919 1027.76 98.6397C1024.36 99.9147 1021.39 101.597 1018.29 103.486C1016.85 100.677 1013.71 96.8519 1011.37 94.7548C1008.31 97.3976 1006.06 99.8595 1003.56 102.945C1001.22 100.795 998.834 99.0733 996.017 97.5674C996.573 103.679 997.528 109.715 998.826 115.711C1001.89 115.672 1004.58 115.029 1007.65 115.153C1012.93 115.366 1016.81 116.115 1021.95 117.466Z" stroke="url(#paint7_linear_1_111)" stroke-width="3.4417" stroke-miterlimit="1.5" stroke-linecap="round" stroke-linejoin="round"/>
    <path d="M1067.43 114.96L1078.09 115.56L1073.87 101.871L1070.33 101.672L1066.7 109.957L1067.79 110.019C1068.77 110.073 1069.67 109.505 1070.04 108.604L1071.96 103.956L1074.69 113.456L1065.4 112.933L1063.02 118.352C1064.81 118.375 1066.45 117.306 1067.14 115.645L1067.43 114.96Z" fill="white"/>
    <path d="M1074.07 101.618L1070.16 101.398L1066.3 110.199L1067.78 110.281C1068.86 110.342 1069.87 109.708 1070.29 108.704L1071.92 104.755L1074.33 113.171L1065.23 112.659L1062.63 118.598L1062.82 118.609C1064.79 118.72 1066.62 117.57 1067.38 115.747L1067.6 115.233L1078.45 115.844L1074.07 101.618ZM1063.02 118.352L1065.4 112.933L1074.69 113.456L1071.96 103.955L1070.04 108.603C1069.67 109.505 1068.76 110.073 1067.79 110.019L1066.7 109.957L1070.33 101.672L1073.87 101.871L1078.09 115.56L1067.43 114.96L1067.14 115.646C1066.45 117.306 1064.81 118.375 1063.02 118.352Z" fill="white"/>
    <path d="M1049.96 105.772C1050.05 104.163 1049.63 102.848 1048.7 101.865C1047.76 100.877 1046.28 100.32 1044.29 100.208L1038.21 99.8656C1038.21 101.013 1039.11 101.976 1040.27 102.041L1043.8 102.239C1045.03 102.309 1045.9 102.629 1046.45 103.216C1046.99 103.803 1047.23 104.611 1047.17 105.616C1047.13 106.492 1046.86 107.19 1046.37 107.689C1045.75 108.338 1044.77 108.635 1043.48 108.569L1043.37 110.597L1043.71 110.616C1045.63 110.724 1047.15 110.333 1048.22 109.455C1049.29 108.587 1049.87 107.348 1049.96 105.772Z" fill="white"/>
    <path d="M1048.89 101.684C1047.91 100.646 1046.37 100.061 1044.31 99.945L1037.95 99.5878L1037.95 99.7196C1037.87 101.07 1038.91 102.229 1040.26 102.305L1043.78 102.503C1044.95 102.569 1045.75 102.861 1046.25 103.396C1046.74 103.928 1046.96 104.671 1046.91 105.602C1046.87 106.412 1046.62 107.054 1046.18 107.507C1045.6 108.105 1044.69 108.373 1043.45 108.304L1043.23 108.292L1043.09 110.845L1043.69 110.879C1045.68 110.991 1047.26 110.581 1048.39 109.66C1049.51 108.743 1050.13 107.44 1050.22 105.787C1050.32 104.103 1049.87 102.723 1048.89 101.684ZM1043.37 110.597L1043.48 108.569C1044.77 108.635 1045.75 108.339 1046.37 107.689C1046.86 107.189 1047.13 106.491 1047.18 105.616C1047.23 104.611 1046.99 103.804 1046.45 103.216C1045.9 102.629 1045.03 102.309 1043.8 102.239L1040.27 102.041C1039.11 101.976 1038.21 101.013 1038.21 99.8656L1044.29 100.208C1046.28 100.32 1047.76 100.877 1048.7 101.865C1049.63 102.849 1050.05 104.163 1049.96 105.772C1049.87 107.348 1049.29 108.586 1048.23 109.455C1047.15 110.333 1045.63 110.724 1043.71 110.616L1043.37 110.597Z" fill="white"/>
    <path d="M1038.17 108.354L1037.73 108.329L1037.24 116.908L1039.98 117.062L1040.33 110.776C1040.4 109.511 1039.43 108.425 1038.17 108.354Z" fill="white"/>
    <path d="M1038.18 108.09L1037.48 108.051L1036.97 117.156L1040.23 117.339L1040.6 110.789C1040.68 109.38 1039.59 108.17 1038.18 108.09ZM1039.98 117.061L1037.24 116.907L1037.73 108.329L1038.17 108.354C1039.43 108.425 1040.4 109.511 1040.33 110.775L1039.98 117.061Z" fill="white"/>
    <path d="M1086.28 118.712L1086.23 119.662L1088.99 119.817L1089.18 116.575L1088.71 116.549C1087.44 116.477 1086.36 117.448 1086.28 118.712Z" fill="white"/>
    <path d="M1086.02 118.698L1085.95 119.911L1089.24 120.096L1089.45 116.326L1088.72 116.285C1087.31 116.206 1086.1 117.288 1086.02 118.698ZM1088.99 119.817L1086.23 119.661L1086.28 118.712C1086.36 117.448 1087.44 116.477 1088.71 116.548L1089.17 116.574L1088.99 119.817Z" fill="white"/>
    <path d="M1084.54 102.471L1081.38 102.293L1086.42 113.395L1088.12 113.49C1088.98 113.539 1089.79 113.11 1090.22 112.371L1095.73 103.1L1092.65 102.927L1088.13 111.06L1084.54 102.471Z" fill="white"/>
    <path d="M1088.16 110.457L1084.72 102.216L1080.96 102.005L1086.21 113.576L1086.24 113.649L1088.11 113.754C1089.06 113.808 1089.96 113.33 1090.45 112.506L1096.18 102.862L1092.5 102.655L1088.16 110.457ZM1095.73 103.1L1090.22 112.372C1089.79 113.111 1088.98 113.54 1088.12 113.491L1086.42 113.395L1081.38 102.294L1084.54 102.472L1088.13 111.061L1092.65 102.928L1095.73 103.101L1095.73 103.1Z" fill="white"/>
    <path d="M1055.61 100.844L1052.87 100.691L1052.19 112.817L1052.64 112.842C1053.9 112.913 1054.99 111.942 1055.06 110.678L1055.61 100.844Z" fill="white"/>
    <path d="M1055.32 110.693L1055.89 100.596L1052.62 100.412L1051.91 113.066L1052.62 113.105C1054.03 113.185 1055.24 112.103 1055.32 110.693ZM1052.64 112.842L1052.19 112.817L1052.87 100.691L1055.61 100.844L1055.06 110.678C1054.99 111.942 1053.9 112.913 1052.64 112.842Z" fill="white"/>
    <path d="M1058.73 116.209L1052.02 115.832L1051.92 117.732L1060.65 118.223C1060.64 117.16 1059.8 116.269 1058.73 116.209Z" fill="white"/>
    <path d="M1051.64 117.981L1060.9 118.502L1060.91 118.37C1060.98 117.104 1060.01 116.016 1058.74 115.945L1051.77 115.553L1051.64 117.981ZM1052.02 115.832L1058.73 116.209C1059.8 116.269 1060.64 117.16 1060.65 118.223L1051.92 117.732L1052.02 115.832Z" fill="white"/>
    <path d="M1087.27 97.6196C1087.53 98.0001 1087.77 98.3911 1088.04 98.7663" stroke="white" stroke-width="1.68649" stroke-miterlimit="1.5" stroke-linecap="round" stroke-linejoin="round"/>
    <path d="M1093.47 96.147C1093.34 96.6392 1093.25 97.1402 1093.13 97.6339" stroke="white" stroke-width="1.68649" stroke-miterlimit="1.5" stroke-linecap="round" stroke-linejoin="round"/>
    <path d="M1097.3 100.57C1097.94 100.298 1098.54 99.9632 1099.18 99.6905" stroke="white" stroke-width="1.68649" stroke-miterlimit="1.5" stroke-linecap="round" stroke-linejoin="round"/>
    <path d="M1099.36 106.783C1100.03 106.922 1100.72 107.075 1101.4 107.154" stroke="white" stroke-width="1.68649" stroke-miterlimit="1.5" stroke-linecap="round" stroke-linejoin="round"/>
    <path fill-rule="evenodd" clip-rule="evenodd" d="M1165.73 125.55C1167.8 119.343 1169.7 113.003 1171.53 106.724C1168.14 107.999 1165.17 109.681 1162.06 111.57C1160.62 108.761 1157.49 104.936 1155.15 102.839C1152.08 105.481 1149.83 107.943 1147.34 111.029C1144.99 108.879 1142.61 107.157 1139.79 105.651C1140.35 111.763 1141.3 117.799 1142.6 123.795C1145.67 123.756 1148.36 123.113 1151.43 123.237C1156.71 123.45 1160.58 124.199 1165.73 125.55Z" stroke="url(#paint8_linear_1_111)" stroke-width="3.4417" stroke-miterlimit="1.5" stroke-linecap="round" stroke-linejoin="round"/>
    <path d="M1211.2 123.044L1221.87 123.644L1217.65 109.955L1214.1 109.756L1210.47 118.041L1211.57 118.103C1212.54 118.157 1213.44 117.589 1213.82 116.687L1215.74 112.039L1218.47 121.54L1209.17 121.017L1206.8 126.436C1208.58 126.459 1210.22 125.39 1210.91 123.729L1211.2 123.044Z" fill="white"/>
    <path d="M1217.84 109.701L1213.93 109.482L1210.08 118.282L1211.55 118.365C1212.64 118.426 1213.64 117.792 1214.06 116.787L1215.69 112.839L1218.11 121.255L1209 120.743L1206.4 126.682L1206.59 126.693C1208.56 126.804 1210.4 125.654 1211.16 123.831L1211.37 123.317L1222.23 123.928L1217.84 109.701ZM1206.8 126.436L1209.17 121.017L1218.46 121.54L1215.74 112.039L1213.82 116.687C1213.44 117.589 1212.54 118.157 1211.56 118.102L1210.47 118.041L1214.1 109.755L1217.64 109.955L1221.86 123.643L1211.2 123.044L1210.91 123.73C1210.22 125.39 1208.58 126.459 1206.8 126.436Z" fill="white"/>
    <path d="M1193.74 113.856C1193.83 112.247 1193.4 110.932 1192.47 109.949C1191.54 108.961 1190.06 108.404 1188.07 108.292L1181.98 107.949C1181.98 109.096 1182.88 110.06 1184.05 110.125L1187.57 110.323C1188.81 110.393 1189.67 110.712 1190.22 111.3C1190.76 111.887 1191.01 112.695 1190.95 113.699C1190.9 114.576 1190.63 115.274 1190.15 115.773C1189.52 116.422 1188.55 116.719 1187.26 116.653L1187.14 118.681L1187.48 118.7C1189.4 118.808 1190.92 118.417 1192 117.539C1193.06 116.671 1193.65 115.431 1193.74 113.856Z" fill="white"/>
    <path d="M1192.66 109.768C1191.68 108.73 1190.14 108.145 1188.08 108.029L1181.73 107.672L1181.72 107.803C1181.64 109.153 1182.68 110.313 1184.03 110.389L1187.56 110.587C1188.72 110.652 1189.53 110.945 1190.03 111.48C1190.52 112.012 1190.74 112.755 1190.68 113.685C1190.64 114.496 1190.39 115.138 1189.96 115.591C1189.38 116.189 1188.46 116.457 1187.23 116.388L1187.01 116.375L1186.86 118.929L1187.46 118.963C1189.46 119.075 1191.04 118.665 1192.16 117.744C1193.29 116.826 1193.9 115.524 1194 113.871C1194.09 112.187 1193.64 110.807 1192.66 109.768ZM1187.14 118.681L1187.26 116.653C1188.55 116.719 1189.52 116.423 1190.15 115.773C1190.63 115.273 1190.9 114.575 1190.95 113.699C1191.01 112.695 1190.76 111.887 1190.22 111.3C1189.67 110.712 1188.81 110.393 1187.57 110.323L1184.05 110.125C1182.89 110.06 1181.98 109.097 1181.98 107.949L1188.07 108.292C1190.06 108.404 1191.54 108.961 1192.47 109.949C1193.4 110.932 1193.83 112.247 1193.74 113.856C1193.65 115.431 1193.06 116.67 1192 117.539C1190.92 118.417 1189.4 118.808 1187.48 118.7L1187.14 118.681Z" fill="white"/>
    <path d="M1181.94 116.438L1181.5 116.413L1181.02 124.992L1183.75 125.145L1184.11 118.859C1184.18 117.595 1183.21 116.509 1181.94 116.438Z" fill="white"/>
    <path d="M1181.96 116.174L1181.25 116.134L1180.74 125.239L1184 125.423L1184.37 118.873C1184.45 117.464 1183.37 116.253 1181.96 116.174ZM1183.75 125.144L1181.02 124.991L1181.5 116.413L1181.94 116.438C1183.21 116.509 1184.18 117.595 1184.11 118.859L1183.75 125.144Z" fill="white"/>
    <path d="M1230.06 126.796L1230.01 127.746L1232.77 127.901L1232.95 124.659L1232.48 124.632C1231.22 124.561 1230.13 125.532 1230.06 126.796Z" fill="white"/>
    <path d="M1229.79 126.781L1229.73 127.995L1233.02 128.18L1233.23 124.41L1232.49 124.369C1231.09 124.29 1229.87 125.372 1229.79 126.781ZM1232.77 127.901L1230.01 127.745L1230.06 126.795C1230.13 125.532 1231.22 124.561 1232.48 124.632L1232.95 124.658L1232.77 127.901Z" fill="white"/>
    <path d="M1228.31 110.555L1225.16 110.377L1230.19 121.478L1231.9 121.574C1232.75 121.623 1233.56 121.194 1234 120.455L1239.51 111.184L1236.43 111.011L1231.9 119.144L1228.31 110.555Z" fill="white"/>
    <path d="M1231.93 118.541L1228.49 110.3L1224.74 110.089L1229.98 121.66L1230.02 121.733L1231.88 121.838C1232.84 121.892 1233.74 121.413 1234.22 120.59L1239.96 110.946L1236.28 110.739L1231.93 118.541ZM1239.51 111.184L1234 120.455C1233.56 121.194 1232.75 121.624 1231.9 121.575L1230.19 121.479L1225.16 110.378L1228.31 110.555L1231.9 119.145L1236.43 111.012L1239.51 111.185L1239.51 111.184Z" fill="white"/>
    <path d="M1199.38 108.928L1196.65 108.774L1195.97 120.901L1196.41 120.926C1197.67 120.997 1198.76 120.026 1198.83 118.762L1199.38 108.928Z" fill="white"/>
    <path d="M1199.09 118.777L1199.66 108.679L1196.4 108.496L1195.69 121.149L1196.39 121.189C1197.8 121.268 1199.02 120.187 1199.09 118.777ZM1196.41 120.926L1195.97 120.901L1196.65 108.774L1199.38 108.928L1198.83 118.762C1198.76 120.026 1197.67 120.997 1196.41 120.926Z" fill="white"/>
    <path d="M1202.5 124.293L1195.8 123.916L1195.69 125.816L1204.42 126.307C1204.41 125.244 1203.58 124.353 1202.5 124.293Z" fill="white"/>
    <path d="M1195.41 126.065L1204.68 126.585L1204.68 126.454C1204.75 125.188 1203.78 124.1 1202.52 124.029L1195.55 123.637L1195.41 126.065ZM1195.8 123.915L1202.5 124.292C1203.58 124.353 1204.41 125.244 1204.42 126.307L1195.69 125.816L1195.8 123.915Z" fill="white"/>
    <path d="M1231.05 105.703C1231.3 106.084 1231.55 106.475 1231.81 106.85" stroke="white" stroke-width="1.68649" stroke-miterlimit="1.5" stroke-linecap="round" stroke-linejoin="round"/>
    <path d="M1237.25 104.231C1237.12 104.723 1237.02 105.224 1236.9 105.718" stroke="white" stroke-width="1.68649" stroke-miterlimit="1.5" stroke-linecap="round" stroke-linejoin="round"/>
    <path d="M1241.07 108.653C1241.71 108.382 1242.32 108.047 1242.96 107.774" stroke="white" stroke-width="1.68649" stroke-miterlimit="1.5" stroke-linecap="round" stroke-linejoin="round"/>
    <path d="M1243.13 114.866C1243.81 115.006 1244.49 115.159 1245.17 115.238" stroke="white" stroke-width="1.68649" stroke-miterlimit="1.5" stroke-linecap="round" stroke-linejoin="round"/>
    <path fill-rule="evenodd" clip-rule="evenodd" d="M1309.5 133.634C1311.58 127.427 1313.47 121.087 1315.31 114.807C1311.91 116.082 1308.94 117.765 1305.84 119.654C1304.4 116.845 1301.26 113.02 1298.92 110.922C1295.86 113.565 1293.61 116.027 1291.11 119.113C1288.76 116.963 1286.38 115.241 1283.56 113.735C1284.12 119.847 1285.08 125.883 1286.37 131.879C1289.44 131.84 1292.13 131.197 1295.2 131.321C1300.48 131.533 1304.36 132.283 1309.5 133.634Z" stroke="url(#paint9_linear_1_111)" stroke-width="3.4417" stroke-miterlimit="1.5" stroke-linecap="round" stroke-linejoin="round"/>
    <path d="M1354.97 131.128L1365.64 131.728L1361.42 118.039L1357.88 117.84L1354.25 126.125L1355.34 126.186C1356.31 126.241 1357.22 125.673 1357.59 124.771L1359.51 120.123L1362.24 129.624L1352.94 129.101L1350.57 134.52C1352.36 134.543 1354 133.474 1354.69 131.813L1354.97 131.128Z" fill="white"/>
    <path d="M1361.62 117.785L1357.71 117.565L1353.85 126.366L1355.32 126.449C1356.41 126.51 1357.42 125.876 1357.83 124.871L1359.46 120.923L1361.88 129.339L1352.77 128.827L1350.17 134.766L1350.36 134.777C1352.33 134.888 1354.17 133.738 1354.93 131.915L1355.14 131.401L1366 132.011L1361.62 117.785ZM1350.57 134.52L1352.94 129.101L1362.24 129.623L1359.51 120.123L1357.59 124.771C1357.22 125.672 1356.31 126.241 1355.34 126.186L1354.24 126.125L1357.87 117.839L1361.42 118.039L1365.64 131.727L1354.97 131.128L1354.69 131.814C1353.99 133.474 1352.36 134.543 1350.57 134.52Z" fill="white"/>
    <path d="M1337.51 121.94C1337.6 120.331 1337.17 119.016 1336.24 118.033C1335.31 117.045 1333.83 116.487 1331.84 116.375L1325.75 116.033C1325.76 117.18 1326.66 118.144 1327.82 118.209L1331.34 118.407C1332.58 118.477 1333.45 118.796 1333.99 119.384C1334.53 119.971 1334.78 120.778 1334.72 121.783C1334.67 122.66 1334.4 123.358 1333.92 123.857C1333.29 124.506 1332.32 124.802 1331.03 124.737L1330.92 126.764L1331.25 126.783C1333.18 126.892 1334.7 126.501 1335.77 125.623C1336.84 124.755 1337.42 123.515 1337.51 121.94Z" fill="white"/>
    <path d="M1336.44 117.852C1335.46 116.814 1333.91 116.229 1331.85 116.113L1325.5 115.755L1325.49 115.887C1325.42 117.237 1326.45 118.397 1327.8 118.473L1331.33 118.671C1332.49 118.736 1333.3 119.028 1333.8 119.564C1334.29 120.096 1334.51 120.839 1334.46 121.769C1334.41 122.58 1334.17 123.222 1333.73 123.675C1333.15 124.273 1332.23 124.541 1331 124.472L1330.78 124.459L1330.64 127.013L1331.24 127.047C1333.23 127.159 1334.81 126.749 1335.94 125.828C1337.06 124.91 1337.68 123.607 1337.77 121.955C1337.87 120.271 1337.42 118.891 1336.44 117.852ZM1330.92 126.764L1331.03 124.737C1332.32 124.802 1333.29 124.507 1333.92 123.857C1334.4 123.357 1334.67 122.659 1334.72 121.783C1334.78 120.778 1334.53 119.971 1333.99 119.384C1333.45 118.796 1332.58 118.477 1331.34 118.407L1327.82 118.209C1326.66 118.144 1325.76 117.181 1325.75 116.033L1331.84 116.376C1333.83 116.487 1335.31 117.045 1336.24 118.033C1337.17 119.016 1337.6 120.331 1337.51 121.94C1337.42 123.515 1336.84 124.754 1335.77 125.623C1334.7 126.501 1333.18 126.892 1331.25 126.783L1330.92 126.764Z" fill="white"/>
    <path d="M1325.72 124.522L1325.27 124.497L1324.79 133.075L1327.53 133.229L1327.88 126.943C1327.95 125.679 1326.98 124.593 1325.72 124.522Z" fill="white"/>
    <path d="M1325.73 124.258L1325.02 124.218L1324.51 133.323L1327.78 133.507L1328.14 126.957C1328.22 125.548 1327.14 124.337 1325.73 124.258ZM1327.53 133.228L1324.79 133.075L1325.27 124.497L1325.72 124.522C1326.98 124.593 1327.95 125.679 1327.88 126.943L1327.53 133.228Z" fill="white"/>
    <path d="M1373.83 134.88L1373.78 135.83L1376.54 135.985L1376.72 132.743L1376.25 132.716C1374.99 132.645 1373.9 133.615 1373.83 134.88Z" fill="white"/>
    <path d="M1373.57 134.865L1373.5 136.079L1376.79 136.264L1377 132.494L1376.27 132.453C1374.86 132.374 1373.65 133.455 1373.57 134.865ZM1376.54 135.984L1373.78 135.829L1373.83 134.879C1373.9 133.616 1374.99 132.645 1376.25 132.716L1376.72 132.742L1376.54 135.984Z" fill="white"/>
    <path d="M1372.08 118.638L1368.93 118.461L1373.96 129.562L1375.67 129.658C1376.53 129.706 1377.33 129.277 1377.77 128.538L1383.28 119.268L1380.2 119.095L1375.67 127.228L1372.08 118.638Z" fill="white"/>
    <path d="M1375.71 126.625L1372.26 118.384L1368.51 118.173L1373.76 129.744L1373.79 129.817L1375.65 129.922C1376.61 129.976 1377.51 129.497 1378 128.674L1383.73 119.03L1380.05 118.823L1375.71 126.625ZM1383.28 119.268L1377.77 128.539C1377.33 129.278 1376.53 129.707 1375.67 129.659L1373.96 129.563L1368.93 118.462L1372.08 118.639L1375.67 127.229L1380.2 119.096L1383.28 119.269L1383.28 119.268Z" fill="white"/>
    <path d="M1343.16 117.012L1340.42 116.858L1339.74 128.984L1340.18 129.009C1341.45 129.08 1342.53 128.11 1342.6 126.846L1343.16 117.012Z" fill="white"/>
    <path d="M1342.87 126.86L1343.44 116.763L1340.17 116.58L1339.46 129.233L1340.17 129.273C1341.58 129.352 1342.79 128.27 1342.87 126.86ZM1340.18 129.009L1339.74 128.984L1340.42 116.858L1343.16 117.012L1342.6 126.846C1342.53 128.11 1341.45 129.08 1340.18 129.009Z" fill="white"/>
    <path d="M1346.27 132.376L1339.57 131.999L1339.46 133.9L1348.2 134.391C1348.19 133.328 1347.35 132.437 1346.27 132.376Z" fill="white"/>
    <path d="M1339.18 134.148L1348.45 134.669L1348.46 134.538C1348.53 133.271 1347.56 132.184 1346.29 132.113L1339.32 131.721L1339.18 134.148ZM1339.57 131.999L1346.27 132.376C1347.35 132.437 1348.19 133.328 1348.2 134.391L1339.46 133.9L1339.57 131.999Z" fill="white"/>
    <path d="M1374.82 113.787C1375.08 114.168 1375.32 114.559 1375.58 114.934" stroke="white" stroke-width="1.68649" stroke-miterlimit="1.5" stroke-linecap="round" stroke-linejoin="round"/>
    <path d="M1381.02 112.315C1380.89 112.807 1380.8 113.308 1380.67 113.802" stroke="white" stroke-width="1.68649" stroke-miterlimit="1.5" stroke-linecap="round" stroke-linejoin="round"/>
    <path d="M1384.84 116.737C1385.48 116.466 1386.09 116.131 1386.73 115.858" stroke="white" stroke-width="1.68649" stroke-miterlimit="1.5" stroke-linecap="round" stroke-linejoin="round"/>
    <path d="M1386.91 122.95C1387.58 123.09 1388.26 123.242 1388.95 123.322" stroke="white" stroke-width="1.68649" stroke-miterlimit="1.5" stroke-linecap="round" stroke-linejoin="round"/>
    <path fill-rule="evenodd" clip-rule="evenodd" d="M1453.27 141.718C1455.35 135.511 1457.25 129.171 1459.08 122.891C1455.68 124.166 1452.71 125.849 1449.61 127.738C1448.17 124.929 1445.03 121.104 1442.69 119.006C1439.63 121.649 1437.38 124.111 1434.88 127.196C1432.54 125.047 1430.15 123.325 1427.34 121.819C1427.89 127.931 1428.85 133.966 1430.15 139.963C1433.21 139.923 1435.9 139.281 1438.97 139.405C1444.25 139.617 1448.13 140.367 1453.27 141.718Z" stroke="url(#paint10_linear_1_111)" stroke-width="3.4417" stroke-miterlimit="1.5" stroke-linecap="round" stroke-linejoin="round"/>
    <defs>
        <linearGradient id="paint0_linear_1_111" x1="-11.2558" y1="53.328" x2="19.3645" y2="55.6749" gradientUnits="userSpaceOnUse">
            <stop stop-color="#C1260F"/>
            <stop offset="1" stop-color="#EE642A"/>
        </linearGradient>
        <linearGradient id="paint1_linear_1_111" x1="132.518" y1="61.4118" x2="163.138" y2="63.7588" gradientUnits="userSpaceOnUse">
            <stop stop-color="#C1260F"/>
            <stop offset="1" stop-color="#EE642A"/>
        </linearGradient>
        <linearGradient id="paint2_linear_1_111" x1="276.29" y1="69.4957" x2="306.91" y2="71.8427" gradientUnits="userSpaceOnUse">
            <stop stop-color="#C1260F"/>
            <stop offset="1" stop-color="#EE642A"/>
        </linearGradient>
        <linearGradient id="paint3_linear_1_111" x1="420.063" y1="77.5796" x2="450.683" y2="79.9265" gradientUnits="userSpaceOnUse">
            <stop stop-color="#C1260F"/>
            <stop offset="1" stop-color="#EE642A"/>
        </linearGradient>
        <linearGradient id="paint4_linear_1_111" x1="563.834" y1="85.6633" x2="594.455" y2="88.0103" gradientUnits="userSpaceOnUse">
            <stop stop-color="#C1260F"/>
            <stop offset="1" stop-color="#EE642A"/>
        </linearGradient>
        <linearGradient id="paint5_linear_1_111" x1="707.607" y1="93.7472" x2="738.228" y2="96.0941" gradientUnits="userSpaceOnUse">
            <stop stop-color="#C1260F"/>
            <stop offset="1" stop-color="#EE642A"/>
        </linearGradient>
        <linearGradient id="paint6_linear_1_111" x1="851.38" y1="101.831" x2="882.001" y2="104.178" gradientUnits="userSpaceOnUse">
            <stop stop-color="#C1260F"/>
            <stop offset="1" stop-color="#EE642A"/>
        </linearGradient>
        <linearGradient id="paint7_linear_1_111" x1="995.153" y1="109.915" x2="1025.77" y2="112.262" gradientUnits="userSpaceOnUse">
            <stop stop-color="#C1260F"/>
            <stop offset="1" stop-color="#EE642A"/>
        </linearGradient>
        <linearGradient id="paint8_linear_1_111" x1="1138.93" y1="117.999" x2="1169.55" y2="120.346" gradientUnits="userSpaceOnUse">
            <stop stop-color="#C1260F"/>
            <stop offset="1" stop-color="#EE642A"/>
        </linearGradient>
        <linearGradient id="paint9_linear_1_111" x1="1282.7" y1="126.083" x2="1313.32" y2="128.43" gradientUnits="userSpaceOnUse">
            <stop stop-color="#C1260F"/>
            <stop offset="1" stop-color="#EE642A"/>
        </linearGradient>
        <linearGradient id="paint10_linear_1_111" x1="1426.47" y1="134.166" x2="1457.09" y2="136.513" gradientUnits="userSpaceOnUse">
            <stop stop-color="#C1260F"/>
            <stop offset="1" stop-color="#EE642A"/>
        </linearGradient>
    </defs>
</svg>
