<svg width="1440" height="347" viewBox="0 0 1440 347" fill="none" xmlns="http://www.w3.org/2000/svg">
    <rect x="-106" y="273.613" width="1662.73" height="74.3793" transform="rotate(-9.4468 -106 273.613)" fill="white"/>
    <rect x="-106" y="273.613" width="1662.73" height="74.3793" transform="rotate(-9.4468 -106 273.613)" fill="white"/>
    <path d="M30.013 295.836L40.5493 294.083L33.4304 281.652L29.9293 282.235L28.2046 291.114L29.2851 290.935C30.2472 290.775 31.0051 290.021 31.1712 289.06L32.0272 284.104L36.7703 292.775L27.5875 294.303L26.4596 300.111C28.2077 299.741 29.5722 298.339 29.8832 296.567L30.013 295.836Z" fill="black"/>
    <path d="M33.5671 281.362L29.7037 282.005L27.8714 291.437L29.3268 291.194C30.3993 291.016 31.2443 290.176 31.4294 289.105L32.1563 284.894L36.3577 292.576L27.3619 294.073L26.1264 300.438L26.3135 300.407C28.2613 300.083 29.8001 298.558 30.1424 296.613L30.2385 296.065L40.9643 294.28L33.5671 281.362ZM26.4589 300.111L27.5868 294.303L36.7688 292.776L32.0257 284.104L31.1697 289.06C31.0036 290.022 30.2456 290.775 29.2836 290.935L28.2031 291.115L29.9278 282.235L33.4289 281.652L40.547 294.083L30.0107 295.836L29.8818 296.568C29.5715 298.339 28.2069 299.741 26.4589 300.111Z" fill="black"/>
    <path d="M10.957 290.701C10.6925 289.111 9.98927 287.922 8.86671 287.166C7.73953 286.407 6.17092 286.188 4.20493 286.515L-1.8075 287.515C-1.5517 288.633 -0.462144 289.376 0.68462 289.185L4.16832 288.606C5.39006 288.402 6.30498 288.524 6.96608 288.978C7.62244 289.432 8.03894 290.166 8.20414 291.159C8.3482 292.025 8.23777 292.765 7.87655 293.358C7.40782 294.129 6.52377 294.631 5.24876 294.85L5.58205 296.854L5.91668 296.798C7.81638 296.482 9.21347 295.768 10.0707 294.675C10.9178 293.595 11.216 292.257 10.957 290.701Z" fill="black"/>
    <path d="M9.01482 286.948C7.83005 286.149 6.19752 285.917 4.16286 286.255L-2.11475 287.3L-2.09308 287.43C-1.87115 288.764 -0.60551 289.668 0.727514 289.446L4.21121 288.866C5.36192 288.675 6.21371 288.783 6.81615 289.196C7.4111 289.608 7.79039 290.284 7.94338 291.203C8.07667 292.004 7.9781 292.684 7.6507 293.222C7.21815 293.932 6.38187 294.395 5.16407 294.598L4.94387 294.634L5.3637 297.158L5.95879 297.059C7.92557 296.731 9.37804 295.984 10.2767 294.839C11.172 293.697 11.4879 292.291 11.2162 290.658C10.941 288.994 10.1996 287.746 9.01482 286.948ZM5.5824 296.853L5.24911 294.85C6.52412 294.631 7.4083 294.129 7.8769 293.358C8.23799 292.764 8.34841 292.024 8.20449 291.159C8.03929 290.166 7.62279 289.432 6.96642 288.978C6.30533 288.524 5.39041 288.402 4.16867 288.606L0.684967 289.185C-0.461007 289.376 -1.55122 288.634 -1.80715 287.515L4.20606 286.515C6.17206 286.188 7.74067 286.407 8.86784 287.166C9.99041 287.922 10.6937 289.111 10.9581 290.701C11.2171 292.257 10.9188 293.594 10.0711 294.675C9.2146 295.767 7.81673 296.482 5.91703 296.798L5.5824 296.853Z" fill="black"/>
    <path d="M0.0189592 295.805L-0.419067 295.878L0.991178 304.354L3.69432 303.904L2.66096 297.693C2.45308 296.444 1.26832 295.597 0.0189592 295.805Z" fill="black"/>
    <path d="M-0.0250351 295.545L-0.723511 295.661L0.773275 304.657L3.99731 304.12L2.92062 297.649C2.68897 296.257 1.36797 295.313 -0.0250351 295.545ZM3.69353 303.903L0.990388 304.353L-0.419726 295.878L0.0183006 295.805C1.26688 295.597 2.45243 296.444 2.66031 297.693L3.69353 303.903Z" fill="black"/>
    <path d="M49.2344 295.362L49.3906 296.3L52.119 295.846L51.5859 292.643L51.1227 292.72C49.8733 292.928 49.0266 294.113 49.2344 295.362Z" fill="black"/>
    <path d="M48.9733 295.405L49.1728 296.604L52.4221 296.064L51.8024 292.339L51.0787 292.46C49.6857 292.691 48.7415 294.012 48.9733 295.405ZM52.1182 295.846L49.3898 296.3L49.2336 295.361C49.0259 294.113 49.8725 292.927 51.1219 292.719L51.5852 292.642L52.1182 295.846Z" fill="black"/>
    <path d="M43.9677 279.899L40.8534 280.417L48.1959 290.145L49.8809 289.865C50.7285 289.724 51.4211 289.128 51.6874 288.311L55.0289 278.058L51.988 278.564L49.3524 287.493L43.9677 279.899Z" fill="black"/>
    <path d="M49.2533 286.897L44.0878 279.611L40.3807 280.228L48.0334 290.368L48.0814 290.432L49.9243 290.125C50.8698 289.968 51.641 289.304 51.938 288.393L55.4143 277.727L51.7814 278.332L49.2533 286.897ZM55.0289 278.058L51.6876 288.312C51.4213 289.129 50.7295 289.724 49.8811 289.865L48.196 290.146L40.8536 280.418L43.9679 279.9L49.3525 287.493L51.9881 278.565L55.0291 278.059L55.0289 278.058Z" fill="black"/>
    <path d="M15.3886 284.654L12.6854 285.104L14.6789 297.084L15.1169 297.012C16.3655 296.804 17.213 295.619 17.0051 294.37L15.3886 284.654Z" fill="black"/>
    <path d="M17.2649 294.326L15.605 284.35L12.381 284.887L14.4611 297.388L15.1596 297.272C16.5518 297.041 17.4967 295.719 17.2649 294.326ZM15.1162 297.012L14.6782 297.085L12.6848 285.104L15.3879 284.654L17.0045 294.37C17.2123 295.619 16.3648 296.804 15.1162 297.012Z" fill="black"/>
    <path d="M21.7985 298.961L15.1744 300.063L15.4868 301.941L24.1148 300.505C23.8728 299.47 22.8616 298.784 21.7985 298.961Z" fill="black"/>
    <path d="M15.2691 302.245L24.4219 300.722L24.4002 300.591C24.1921 299.34 23.0055 298.492 21.7545 298.701L14.87 299.846L15.2691 302.245ZM15.1738 300.063L21.7979 298.961C22.861 298.784 23.8721 299.47 24.1141 300.505L15.4862 301.941L15.1738 300.063Z" fill="black"/>
    <path d="M45.5746 274.566C45.9075 274.881 46.2302 275.209 46.5693 275.517" stroke="black" stroke-width="1.68649" stroke-miterlimit="1.5" stroke-linecap="round" stroke-linejoin="round"/>
    <path d="M51.3018 271.77C51.2814 272.279 51.3008 272.788 51.2879 273.297" stroke="black" stroke-width="1.68649" stroke-miterlimit="1.5" stroke-linecap="round" stroke-linejoin="round"/>
    <path d="M56.0005 275.246C56.5642 274.842 57.085 274.381 57.6475 273.975" stroke="black" stroke-width="1.68649" stroke-miterlimit="1.5" stroke-linecap="round" stroke-linejoin="round"/>
    <path d="M59.376 280.856C60.0629 280.845 60.762 280.844 61.4458 280.772" stroke="black" stroke-width="1.68649" stroke-miterlimit="1.5" stroke-linecap="round" stroke-linejoin="round"/>
    <path fill-rule="evenodd" clip-rule="evenodd" d="M128.242 284.616C128.907 278.104 129.367 271.503 129.779 264.974C126.744 266.963 124.216 269.256 121.603 271.779C119.58 269.355 115.682 266.31 112.938 264.777C110.53 268.027 108.873 270.922 107.114 274.48C104.354 272.897 101.653 271.739 98.5741 270.887C100.456 276.729 102.712 282.408 105.293 287.974C108.274 287.264 110.76 286.046 113.784 285.494C118.98 284.544 122.928 284.425 128.242 284.616Z" stroke="url(#paint0_linear_1_389)" stroke-width="3.4417" stroke-miterlimit="1.5" stroke-linecap="round" stroke-linejoin="round"/>
    <path d="M172.06 272.201L182.596 270.448L175.477 258.017L171.976 258.6L170.252 267.479L171.332 267.3C172.294 267.14 173.052 266.386 173.218 265.425L174.074 260.469L178.817 269.14L169.635 270.668L168.507 276.476C170.255 276.106 171.619 274.704 171.93 272.932L172.06 272.201Z" fill="black"/>
    <path d="M175.614 257.727L171.751 258.37L169.919 267.802L171.374 267.559C172.446 267.381 173.291 266.541 173.476 265.47L174.203 261.259L178.405 268.941L169.409 270.438L168.174 276.803L168.361 276.772C170.308 276.448 171.847 274.923 172.189 272.978L172.286 272.43L183.011 270.645L175.614 257.727ZM168.506 276.476L169.634 270.668L178.816 269.141L174.073 260.469L173.217 265.425C173.051 266.387 172.293 267.14 171.331 267.3L170.25 267.48L171.975 258.6L175.476 258.017L182.594 270.448L172.058 272.201L171.929 272.933C171.619 274.704 170.254 276.106 168.506 276.476Z" fill="black"/>
    <path d="M153.004 267.066C152.74 265.476 152.036 264.287 150.914 263.531C149.787 262.772 148.218 262.553 146.252 262.88L140.24 263.88C140.495 264.998 141.585 265.741 142.732 265.55L146.215 264.971C147.437 264.767 148.352 264.889 149.013 265.343C149.67 265.797 150.086 266.531 150.251 267.524C150.395 268.39 150.285 269.13 149.924 269.723C149.455 270.494 148.571 270.996 147.296 271.215L147.629 273.219L147.964 273.163C149.864 272.847 151.261 272.133 152.118 271.04C152.965 269.96 153.263 268.622 153.004 267.066Z" fill="black"/>
    <path d="M151.062 263.313C149.877 262.514 148.245 262.282 146.21 262.62L139.932 263.665L139.954 263.795C140.176 265.129 141.442 266.033 142.775 265.811L146.258 265.231C147.409 265.04 148.261 265.148 148.863 265.561C149.458 265.973 149.838 266.649 149.99 267.568C150.124 268.369 150.025 269.049 149.698 269.587C149.265 270.297 148.429 270.76 147.211 270.963L146.991 270.999L147.411 273.523L148.006 273.424C149.973 273.096 151.425 272.349 152.324 271.204C153.219 270.062 153.535 268.656 153.263 267.023C152.988 265.359 152.247 264.111 151.062 263.313ZM147.63 273.218L147.296 271.215C148.571 270.996 149.455 270.494 149.924 269.723C150.285 269.129 150.396 268.389 150.252 267.524C150.086 266.531 149.67 265.797 149.014 265.343C148.352 264.889 147.438 264.767 146.216 264.971L142.732 265.55C141.586 265.741 140.496 264.999 140.24 263.88L146.253 262.88C148.219 262.553 149.788 262.772 150.915 263.531C152.038 264.287 152.741 265.476 153.005 267.066C153.264 268.622 152.966 269.959 152.118 271.04C151.262 272.132 149.864 272.847 147.964 273.163L147.63 273.218Z" fill="black"/>
    <path d="M142.066 272.17L141.628 272.243L143.038 280.719L145.741 280.269L144.708 274.058C144.5 272.809 143.315 271.962 142.066 272.17Z" fill="black"/>
    <path d="M142.022 271.91L141.324 272.026L142.82 281.022L146.044 280.485L144.968 274.014C144.736 272.622 143.415 271.678 142.022 271.91ZM145.741 280.268L143.038 280.718L141.627 272.243L142.065 272.17C143.314 271.962 144.5 272.809 144.707 274.058L145.741 280.268Z" fill="black"/>
    <path d="M191.282 271.727L191.438 272.665L194.166 272.211L193.633 269.008L193.17 269.085C191.92 269.293 191.074 270.478 191.282 271.727Z" fill="black"/>
    <path d="M191.02 271.77L191.22 272.969L194.469 272.429L193.85 268.704L193.126 268.825C191.733 269.056 190.789 270.377 191.02 271.77ZM194.165 272.211L191.437 272.665L191.281 271.726C191.073 270.478 191.92 269.292 193.169 269.084L193.632 269.007L194.165 272.211Z" fill="black"/>
    <path d="M186.015 256.264L182.901 256.782L190.243 266.51L191.928 266.23C192.776 266.089 193.468 265.493 193.735 264.676L197.076 254.423L194.035 254.929L191.399 263.858L186.015 256.264Z" fill="black"/>
    <path d="M191.3 263.262L186.135 255.976L182.428 256.593L190.081 266.733L190.129 266.797L191.971 266.49C192.917 266.333 193.688 265.669 193.985 264.758L197.461 254.092L193.829 254.697L191.3 263.262ZM197.076 254.423L193.735 264.677C193.468 265.494 192.777 266.089 191.928 266.23L190.243 266.511L182.901 256.783L186.015 256.265L191.4 263.858L194.035 254.93L197.076 254.424L197.076 254.423Z" fill="black"/>
    <path d="M157.436 261.019L154.733 261.469L156.726 273.449L157.164 273.377C158.413 273.169 159.26 271.984 159.052 270.735L157.436 261.019Z" fill="black"/>
    <path d="M159.312 270.691L157.652 260.715L154.428 261.252L156.508 273.753L157.207 273.637C158.599 273.406 159.544 272.084 159.312 270.691ZM157.163 273.377L156.725 273.45L154.732 261.469L157.435 261.019L159.052 270.735C159.259 271.984 158.412 273.169 157.163 273.377Z" fill="black"/>
    <path d="M163.846 275.326L157.222 276.428L157.534 278.306L166.162 276.87C165.92 275.835 164.909 275.149 163.846 275.326Z" fill="black"/>
    <path d="M157.316 278.61L166.469 277.087L166.447 276.956C166.239 275.705 165.053 274.857 163.802 275.066L156.917 276.211L157.316 278.61ZM157.221 276.428L163.845 275.326C164.908 275.149 165.919 275.835 166.161 276.87L157.533 278.306L157.221 276.428Z" fill="black"/>
    <path d="M187.622 250.931C187.955 251.246 188.277 251.574 188.616 251.882" stroke="black" stroke-width="1.68649" stroke-miterlimit="1.5" stroke-linecap="round" stroke-linejoin="round"/>
    <path d="M193.349 248.135C193.329 248.644 193.348 249.153 193.335 249.662" stroke="black" stroke-width="1.68649" stroke-miterlimit="1.5" stroke-linecap="round" stroke-linejoin="round"/>
    <path d="M198.048 251.611C198.611 251.207 199.132 250.746 199.695 250.34" stroke="black" stroke-width="1.68649" stroke-miterlimit="1.5" stroke-linecap="round" stroke-linejoin="round"/>
    <path d="M201.423 257.221C202.11 257.21 202.809 257.209 203.493 257.136" stroke="black" stroke-width="1.68649" stroke-miterlimit="1.5" stroke-linecap="round" stroke-linejoin="round"/>
    <path fill-rule="evenodd" clip-rule="evenodd" d="M270.289 260.981C270.955 254.469 271.414 247.868 271.826 241.339C268.792 243.328 266.263 245.621 263.65 248.144C261.628 245.72 257.729 242.675 254.985 241.142C252.578 244.392 250.92 247.288 249.161 250.845C246.401 249.262 243.7 248.104 240.621 247.253C242.503 253.094 244.759 258.773 247.34 264.339C250.321 263.629 252.807 262.411 255.831 261.859C261.027 260.909 264.975 260.79 270.289 260.981Z" stroke="url(#paint1_linear_1_389)" stroke-width="3.4417" stroke-miterlimit="1.5" stroke-linecap="round" stroke-linejoin="round"/>
    <path d="M314.107 248.566L324.643 246.813L317.524 234.382L314.023 234.965L312.299 243.844L313.379 243.665C314.341 243.505 315.099 242.752 315.265 241.79L316.121 236.834L320.864 245.505L311.682 247.033L310.554 252.841C312.302 252.472 313.666 251.069 313.977 249.297L314.107 248.566Z" fill="black"/>
    <path d="M317.661 234.092L313.798 234.735L311.966 244.167L313.421 243.925C314.494 243.746 315.339 242.906 315.524 241.835L316.251 237.624L320.452 245.306L311.456 246.803L310.221 253.168L310.408 253.137C312.356 252.813 313.894 251.288 314.237 249.343L314.333 248.795L325.059 247.01L317.661 234.092ZM310.553 252.841L311.681 247.033L320.863 245.506L316.12 236.834L315.264 241.791C315.098 242.752 314.34 243.505 313.378 243.665L312.297 243.845L314.022 234.965L317.523 234.382L324.641 246.813L314.105 248.566L313.976 249.298C313.666 251.069 312.301 252.472 310.553 252.841Z" fill="black"/>
    <path d="M295.051 243.431C294.787 241.841 294.084 240.652 292.961 239.896C291.834 239.137 290.265 238.918 288.299 239.245L282.287 240.245C282.543 241.364 283.632 242.106 284.779 241.915L288.263 241.336C289.484 241.132 290.399 241.254 291.06 241.708C291.717 242.163 292.133 242.896 292.298 243.889C292.443 244.755 292.332 245.495 291.971 246.088C291.502 246.859 290.618 247.361 289.343 247.581L289.676 249.584L290.011 249.528C291.911 249.212 293.308 248.498 294.165 247.405C295.012 246.325 295.31 244.987 295.051 243.431Z" fill="black"/>
    <path d="M293.109 239.678C291.925 238.88 290.292 238.647 288.257 238.985L281.98 240.03L282.001 240.16C282.223 241.494 283.489 242.398 284.822 242.176L288.306 241.596C289.456 241.405 290.308 241.513 290.911 241.926C291.506 242.338 291.885 243.014 292.038 243.933C292.171 244.734 292.073 245.414 291.745 245.952C291.313 246.662 290.476 247.125 289.259 247.328L289.038 247.364L289.458 249.888L290.053 249.789C292.02 249.461 293.473 248.714 294.371 247.569C295.266 246.427 295.582 245.021 295.311 243.388C295.035 241.724 294.294 240.476 293.109 239.678ZM289.677 249.584L289.344 247.581C290.619 247.361 291.503 246.86 291.971 246.088C292.332 245.494 292.443 244.754 292.299 243.889C292.134 242.896 291.717 242.162 291.061 241.708C290.4 241.254 289.485 241.132 288.263 241.336L284.779 241.915C283.633 242.106 282.543 241.364 282.287 240.245L288.301 239.245C290.267 238.918 291.835 239.137 292.962 239.896C294.085 240.652 294.788 241.841 295.053 243.431C295.312 244.987 295.013 246.324 294.166 247.405C293.309 248.497 291.911 249.212 290.012 249.528L289.677 249.584Z" fill="black"/>
    <path d="M284.113 248.535L283.675 248.608L285.086 257.084L287.789 256.634L286.755 250.423C286.547 249.174 285.363 248.327 284.113 248.535Z" fill="black"/>
    <path d="M284.069 248.275L283.371 248.391L284.868 257.387L288.092 256.85L287.015 250.379C286.783 248.987 285.462 248.043 284.069 248.275ZM287.788 256.633L285.085 257.083L283.675 248.608L284.113 248.535C285.361 248.327 286.547 249.174 286.755 250.423L287.788 256.633Z" fill="black"/>
    <path d="M333.329 248.092L333.485 249.03L336.213 248.576L335.68 245.373L335.217 245.45C333.968 245.658 333.121 246.843 333.329 248.092Z" fill="black"/>
    <path d="M333.068 248.136L333.267 249.334L336.516 248.794L335.897 245.069L335.173 245.19C333.78 245.422 332.836 246.743 333.068 248.136ZM336.213 248.576L333.484 249.03L333.328 248.091C333.12 246.843 333.967 245.657 335.216 245.449L335.68 245.372L336.213 248.576Z" fill="black"/>
    <path d="M328.062 232.629L324.948 233.147L332.29 242.875L333.975 242.595C334.823 242.454 335.515 241.858 335.782 241.041L339.123 230.788L336.082 231.294L333.447 240.223L328.062 232.629Z" fill="black"/>
    <path d="M333.348 239.627L328.182 232.341L324.475 232.958L332.128 243.098L332.176 243.162L334.019 242.855C334.964 242.698 335.735 242.034 336.032 241.123L339.509 230.458L335.876 231.062L333.348 239.627ZM339.123 230.789L335.782 241.042C335.516 241.859 334.824 242.454 333.975 242.596L332.29 242.876L324.948 233.148L328.062 232.63L333.447 240.223L336.082 231.295L339.123 230.789L339.123 230.789Z" fill="black"/>
    <path d="M299.483 237.384L296.78 237.834L298.773 249.815L299.211 249.742C300.46 249.534 301.307 248.349 301.099 247.1L299.483 237.384Z" fill="black"/>
    <path d="M301.359 247.056L299.699 237.081L296.475 237.617L298.555 250.118L299.254 250.002C300.646 249.771 301.591 248.449 301.359 247.056ZM299.211 249.742L298.773 249.815L296.779 237.834L299.482 237.384L301.099 247.1C301.307 248.349 300.459 249.534 299.211 249.742Z" fill="black"/>
    <path d="M305.893 251.691L299.269 252.793L299.581 254.671L308.209 253.235C307.967 252.2 306.956 251.514 305.893 251.691Z" fill="black"/>
    <path d="M299.363 254.975L308.516 253.452L308.495 253.322C308.286 252.071 307.1 251.223 305.849 251.431L298.964 252.576L299.363 254.975ZM299.268 252.793L305.892 251.691C306.955 251.514 307.967 252.2 308.209 253.235L299.581 254.671L299.268 252.793Z" fill="black"/>
    <path d="M329.669 227.296C330.002 227.611 330.324 227.939 330.663 228.247" stroke="black" stroke-width="1.68649" stroke-miterlimit="1.5" stroke-linecap="round" stroke-linejoin="round"/>
    <path d="M335.396 224.5C335.376 225.009 335.395 225.518 335.382 226.027" stroke="black" stroke-width="1.68649" stroke-miterlimit="1.5" stroke-linecap="round" stroke-linejoin="round"/>
    <path d="M340.095 227.976C340.658 227.572 341.179 227.111 341.742 226.705" stroke="black" stroke-width="1.68649" stroke-miterlimit="1.5" stroke-linecap="round" stroke-linejoin="round"/>
    <path d="M343.47 233.586C344.157 233.575 344.856 233.574 345.54 233.502" stroke="black" stroke-width="1.68649" stroke-miterlimit="1.5" stroke-linecap="round" stroke-linejoin="round"/>
    <path fill-rule="evenodd" clip-rule="evenodd" d="M412.336 237.346C413.002 230.834 413.461 224.233 413.874 217.704C410.839 219.693 408.31 221.986 405.697 224.509C403.675 222.085 399.777 219.04 397.033 217.507C394.625 220.757 392.968 223.653 391.208 227.21C388.448 225.627 385.747 224.469 382.668 223.618C384.55 229.459 386.806 235.138 389.387 240.704C392.369 239.994 394.854 238.776 397.878 238.224C403.074 237.274 407.022 237.155 412.336 237.346Z" stroke="url(#paint2_linear_1_389)" stroke-width="3.4417" stroke-miterlimit="1.5" stroke-linecap="round" stroke-linejoin="round"/>
    <path d="M456.154 224.931L466.691 223.178L459.572 210.747L456.071 211.33L454.346 220.209L455.426 220.03C456.388 219.87 457.146 219.117 457.312 218.155L458.168 213.199L462.912 221.87L453.729 223.398L452.601 229.206C454.349 228.837 455.713 227.434 456.024 225.662L456.154 224.931Z" fill="black"/>
    <path d="M459.708 210.457L455.845 211.1L454.013 220.532L455.468 220.29C456.541 220.111 457.386 219.271 457.571 218.2L458.298 213.989L462.499 221.671L453.503 223.168L452.268 229.533L452.455 229.502C454.403 229.178 455.941 227.653 456.284 225.708L456.38 225.16L467.106 223.375L459.708 210.457ZM452.6 229.206L453.728 223.398L462.91 221.871L458.167 213.199L457.311 218.156C457.145 219.117 456.387 219.87 455.425 220.03L454.344 220.21L456.069 211.33L459.57 210.747L466.688 223.178L456.152 224.931L456.023 225.663C455.713 227.434 454.348 228.837 452.6 229.206Z" fill="black"/>
    <path d="M437.098 219.796C436.834 218.206 436.131 217.017 435.008 216.261C433.881 215.502 432.312 215.283 430.346 215.61L424.334 216.61C424.59 217.729 425.679 218.471 426.826 218.28L430.31 217.701C431.532 217.497 432.446 217.619 433.108 218.073C433.764 218.528 434.18 219.261 434.346 220.254C434.49 221.12 434.379 221.86 434.018 222.453C433.549 223.224 432.665 223.726 431.39 223.946L431.724 225.949L432.058 225.893C433.958 225.577 435.355 224.863 436.212 223.77C437.059 222.69 437.357 221.352 437.098 219.796Z" fill="black"/>
    <path d="M435.156 216.043C433.972 215.245 432.339 215.012 430.304 215.35L424.027 216.395L424.049 216.525C424.27 217.859 425.536 218.763 426.869 218.541L430.353 217.961C431.504 217.77 432.355 217.878 432.958 218.291C433.553 218.703 433.932 219.379 434.085 220.298C434.218 221.099 434.12 221.779 433.792 222.317C433.36 223.027 432.523 223.49 431.306 223.693L431.085 223.729L431.505 226.253L432.1 226.154C434.067 225.826 435.52 225.079 436.418 223.934C437.314 222.792 437.63 221.386 437.358 219.753C437.083 218.089 436.341 216.841 435.156 216.043ZM431.724 225.949L431.391 223.945C432.666 223.726 433.55 223.224 434.018 222.453C434.38 221.859 434.49 221.119 434.346 220.254C434.181 219.261 433.764 218.527 433.108 218.073C432.447 217.619 431.532 217.497 430.31 217.701L426.827 218.28C425.681 218.471 424.59 217.729 424.334 216.61L430.348 215.61C432.314 215.283 433.882 215.502 435.009 216.261C436.132 217.017 436.835 218.206 437.1 219.796C437.359 221.352 437.06 222.689 436.213 223.77C435.356 224.862 433.958 225.577 432.059 225.893L431.724 225.949Z" fill="black"/>
    <path d="M426.16 224.9L425.722 224.973L427.133 233.449L429.836 232.999L428.802 226.788C428.595 225.539 427.41 224.692 426.16 224.9Z" fill="black"/>
    <path d="M426.116 224.64L425.418 224.756L426.915 233.752L430.139 233.215L429.062 226.744C428.83 225.352 427.509 224.408 426.116 224.64ZM429.835 232.998L427.132 233.448L425.722 224.973L426.16 224.9C427.408 224.692 428.594 225.539 428.802 226.788L429.835 232.998Z" fill="black"/>
    <path d="M475.376 224.457L475.532 225.395L478.26 224.941L477.727 221.738L477.264 221.815C476.015 222.023 475.168 223.208 475.376 224.457Z" fill="black"/>
    <path d="M475.115 224.501L475.314 225.699L478.564 225.159L477.944 221.434L477.22 221.555C475.827 221.787 474.883 223.108 475.115 224.501ZM478.26 224.941L475.531 225.395L475.375 224.456C475.167 223.208 476.014 222.022 477.263 221.814L477.727 221.737L478.26 224.941Z" fill="black"/>
    <path d="M470.109 208.994L466.995 209.512L474.337 219.24L476.022 218.96C476.87 218.819 477.563 218.223 477.829 217.406L481.17 207.153L478.129 207.659L475.494 216.588L470.109 208.994Z" fill="black"/>
    <path d="M475.395 215.992L470.229 208.706L466.522 209.323L474.175 219.463L474.223 219.527L476.066 219.22C477.011 219.063 477.782 218.399 478.079 217.488L481.556 206.823L477.923 207.427L475.395 215.992ZM481.17 207.153L477.829 217.407C477.563 218.224 476.871 218.819 476.023 218.961L474.338 219.241L466.995 209.513L470.109 208.995L475.494 216.588L478.13 207.66L481.171 207.154L481.17 207.153Z" fill="black"/>
    <path d="M441.53 213.749L438.827 214.199L440.82 226.179L441.258 226.107C442.507 225.899 443.354 224.714 443.147 223.465L441.53 213.749Z" fill="black"/>
    <path d="M443.406 223.421L441.747 213.445L438.522 213.982L440.603 226.483L441.301 226.367C442.693 226.136 443.638 224.814 443.406 223.421ZM441.258 226.107L440.82 226.18L438.826 214.199L441.529 213.749L443.146 223.465C443.354 224.714 442.506 225.899 441.258 226.107Z" fill="black"/>
    <path d="M447.94 228.056L441.316 229.158L441.628 231.036L450.256 229.6C450.014 228.565 449.003 227.879 447.94 228.056Z" fill="black"/>
    <path d="M441.411 231.34L450.563 229.817L450.542 229.687C450.334 228.436 449.147 227.588 447.896 227.796L441.011 228.941L441.411 231.34ZM441.315 229.158L447.939 228.056C449.002 227.879 450.014 228.565 450.256 229.6L441.628 231.036L441.315 229.158Z" fill="black"/>
    <path d="M471.716 203.661C472.049 203.976 472.371 204.304 472.71 204.612" stroke="black" stroke-width="1.68649" stroke-miterlimit="1.5" stroke-linecap="round" stroke-linejoin="round"/>
    <path d="M477.443 200.865C477.423 201.374 477.442 201.883 477.429 202.392" stroke="black" stroke-width="1.68649" stroke-miterlimit="1.5" stroke-linecap="round" stroke-linejoin="round"/>
    <path d="M482.142 204.341C482.706 203.937 483.226 203.476 483.789 203.07" stroke="black" stroke-width="1.68649" stroke-miterlimit="1.5" stroke-linecap="round" stroke-linejoin="round"/>
    <path d="M485.517 209.951C486.204 209.94 486.903 209.939 487.587 209.867" stroke="black" stroke-width="1.68649" stroke-miterlimit="1.5" stroke-linecap="round" stroke-linejoin="round"/>
    <path fill-rule="evenodd" clip-rule="evenodd" d="M554.38 213.711C555.046 207.2 555.506 200.599 555.918 194.07C552.883 196.059 550.354 198.352 547.742 200.875C545.719 198.45 541.821 195.405 539.077 193.872C536.669 197.122 535.012 200.018 533.252 203.576C530.493 201.992 527.791 200.835 524.713 199.983C526.594 205.824 528.85 211.504 531.431 217.07C534.413 216.359 536.899 215.142 539.922 214.589C545.118 213.64 549.067 213.521 554.38 213.711Z" stroke="url(#paint3_linear_1_389)" stroke-width="3.4417" stroke-miterlimit="1.5" stroke-linecap="round" stroke-linejoin="round"/>
    <path d="M598.198 201.296L608.735 199.543L601.616 187.113L598.115 187.695L596.39 196.575L597.47 196.395C598.433 196.235 599.191 195.482 599.357 194.521L600.213 189.565L604.956 198.236L595.773 199.764L594.645 205.572C596.393 205.202 597.758 203.8 598.069 202.028L598.198 201.296Z" fill="black"/>
    <path d="M601.753 186.822L597.889 187.465L596.057 196.897L597.512 196.655C598.585 196.477 599.43 195.637 599.615 194.565L600.342 190.355L604.543 198.037L595.547 199.534L594.312 205.899L594.499 205.867C596.447 205.543 597.986 204.019 598.328 202.074L598.424 201.526L609.15 199.741L601.753 186.822ZM594.644 205.572L595.772 199.764L604.954 198.236L600.211 189.565L599.355 194.521C599.189 195.482 598.431 196.235 597.469 196.395L596.389 196.575L598.113 187.695L601.614 187.113L608.733 199.544L598.196 201.297L598.067 202.029C597.757 203.8 596.392 205.202 594.644 205.572Z" fill="black"/>
    <path d="M579.143 196.161C578.878 194.572 578.175 193.382 577.052 192.627C575.925 191.868 574.357 191.648 572.391 191.976L566.378 192.976C566.634 194.094 567.724 194.837 568.87 194.646L572.354 194.066C573.576 193.863 574.491 193.985 575.152 194.438C575.808 194.893 576.225 195.627 576.39 196.62C576.534 197.485 576.423 198.226 576.062 198.819C575.593 199.589 574.709 200.092 573.434 200.311L573.768 202.314L574.102 202.258C576.002 201.942 577.399 201.228 578.256 200.136C579.103 199.055 579.402 197.718 579.143 196.161Z" fill="black"/>
    <path d="M577.201 192.408C576.016 191.61 574.383 191.377 572.349 191.716L566.071 192.76L566.093 192.89C566.315 194.224 567.58 195.128 568.913 194.906L572.397 194.327C573.548 194.135 574.399 194.243 575.002 194.656C575.597 195.068 575.976 195.744 576.129 196.664C576.262 197.465 576.164 198.145 575.836 198.683C575.404 199.393 574.568 199.856 573.35 200.058L573.13 200.095L573.549 202.618L574.145 202.519C576.111 202.192 577.564 201.445 578.463 200.299C579.358 199.158 579.674 197.751 579.402 196.118C579.127 194.454 578.385 193.206 577.201 192.408ZM573.768 202.314L573.435 200.311C574.71 200.092 575.594 199.59 576.063 198.819C576.424 198.225 576.534 197.484 576.39 196.619C576.225 195.627 575.809 194.893 575.152 194.438C574.491 193.985 573.576 193.863 572.354 194.066L568.871 194.646C567.725 194.836 566.635 194.095 566.379 192.976L572.392 191.975C574.358 191.648 575.926 191.867 577.054 192.626C578.176 193.382 578.879 194.572 579.144 196.161C579.403 197.718 579.105 199.055 578.257 200.136C577.4 201.228 576.003 201.942 574.103 202.258L573.768 202.314Z" fill="black"/>
    <path d="M568.205 201.266L567.767 201.339L569.177 209.814L571.88 209.364L570.847 203.154C570.639 201.905 569.454 201.058 568.205 201.266Z" fill="black"/>
    <path d="M568.161 201.005L567.462 201.121L568.959 210.117L572.183 209.581L571.106 203.11C570.875 201.718 569.554 200.773 568.161 201.005ZM571.879 209.364L569.176 209.813L567.766 201.339L568.204 201.266C569.453 201.058 570.638 201.905 570.846 203.154L571.879 209.364Z" fill="black"/>
    <path d="M617.42 200.822L617.576 201.761L620.305 201.307L619.772 198.103L619.308 198.18C618.059 198.388 617.212 199.573 617.42 200.822Z" fill="black"/>
    <path d="M617.159 200.866L617.358 202.065L620.608 201.524L619.988 197.8L619.264 197.92C617.871 198.152 616.927 199.473 617.159 200.866ZM620.304 201.306L617.575 201.76L617.419 200.822C617.212 199.573 618.058 198.388 619.308 198.18L619.771 198.103L620.304 201.306Z" fill="black"/>
    <path d="M612.153 185.359L609.039 185.878L616.382 195.606L618.067 195.325C618.914 195.184 619.607 194.589 619.873 193.771L623.215 183.519L620.174 184.025L617.538 192.953L612.153 185.359Z" fill="black"/>
    <path d="M617.439 192.357L612.273 185.072L608.566 185.689L616.219 195.828L616.267 195.892L618.11 195.586C619.055 195.428 619.827 194.765 620.124 193.854L623.6 183.188L619.967 183.792L617.439 192.357ZM623.215 183.519L619.873 193.772C619.607 194.59 618.915 195.185 618.067 195.326L616.382 195.606L609.039 185.878L612.154 185.36L617.538 192.954L620.174 184.026L623.215 183.52L623.215 183.519Z" fill="black"/>
    <path d="M583.574 190.115L580.871 190.564L582.865 202.545L583.303 202.472C584.551 202.264 585.399 201.079 585.191 199.83L583.574 190.115Z" fill="black"/>
    <path d="M585.451 199.787L583.791 189.811L580.567 190.347L582.647 202.849L583.345 202.733C584.737 202.501 585.682 201.18 585.451 199.787ZM583.302 202.472L582.864 202.545L580.87 190.565L583.574 190.115L585.19 199.83C585.398 201.08 584.55 202.265 583.302 202.472Z" fill="black"/>
    <path d="M589.984 204.422L583.36 205.524L583.673 207.401L592.3 205.966C592.058 204.931 591.047 204.245 589.984 204.422Z" fill="black"/>
    <path d="M583.455 207.705L592.608 206.182L592.586 206.052C592.378 204.801 591.191 203.953 589.94 204.161L583.056 205.307L583.455 207.705ZM583.359 205.524L589.984 204.422C591.047 204.245 592.058 204.931 592.3 205.966L583.672 207.401L583.359 205.524Z" fill="black"/>
    <path d="M613.76 180.026C614.093 180.341 614.416 180.669 614.755 180.978" stroke="black" stroke-width="1.68649" stroke-miterlimit="1.5" stroke-linecap="round" stroke-linejoin="round"/>
    <path d="M619.487 177.23C619.467 177.739 619.486 178.248 619.473 178.757" stroke="black" stroke-width="1.68649" stroke-miterlimit="1.5" stroke-linecap="round" stroke-linejoin="round"/>
    <path d="M624.186 180.707C624.75 180.302 625.271 179.842 625.833 179.436" stroke="black" stroke-width="1.68649" stroke-miterlimit="1.5" stroke-linecap="round" stroke-linejoin="round"/>
    <path d="M627.562 186.317C628.248 186.305 628.948 186.305 629.631 186.232" stroke="black" stroke-width="1.68649" stroke-miterlimit="1.5" stroke-linecap="round" stroke-linejoin="round"/>
    <path fill-rule="evenodd" clip-rule="evenodd" d="M696.428 190.076C697.094 183.565 697.554 176.964 697.966 170.435C694.931 172.424 692.402 174.717 689.79 177.24C687.767 174.815 683.869 171.77 681.125 170.237C678.717 173.487 677.06 176.383 675.301 179.941C672.541 178.357 669.839 177.2 666.761 176.348C668.642 182.189 670.898 187.869 673.479 193.435C676.461 192.724 678.947 191.507 681.97 190.954C687.166 190.005 691.115 189.886 696.428 190.076Z" stroke="url(#paint4_linear_1_389)" stroke-width="3.4417" stroke-miterlimit="1.5" stroke-linecap="round" stroke-linejoin="round"/>
    <path d="M740.246 177.661L750.783 175.908L743.664 163.478L740.163 164.06L738.438 172.94L739.519 172.76C740.481 172.6 741.239 171.847 741.405 170.886L742.261 165.93L747.004 174.601L737.821 176.129L736.693 181.937C738.441 181.567 739.806 180.165 740.117 178.393L740.246 177.661Z" fill="black"/>
    <path d="M743.801 163.187L739.937 163.83L738.105 173.262L739.56 173.02C740.633 172.842 741.478 172.002 741.663 170.93L742.39 166.72L746.591 174.402L737.596 175.899L736.36 182.264L736.547 182.232C738.495 181.908 740.034 180.384 740.376 178.439L740.472 177.891L751.198 176.106L743.801 163.187ZM736.693 181.937L737.82 176.129L747.002 174.601L742.259 165.93L741.403 170.886C741.237 171.847 740.479 172.6 739.517 172.76L738.437 172.94L740.161 164.06L743.663 163.478L750.781 175.909L740.244 177.662L740.115 178.394C739.805 180.165 738.441 181.567 736.693 181.937Z" fill="black"/>
    <path d="M721.191 172.526C720.926 170.937 720.223 169.747 719.1 168.992C717.973 168.233 716.405 168.013 714.439 168.341L708.426 169.341C708.682 170.459 709.772 171.202 710.918 171.011L714.402 170.431C715.624 170.228 716.539 170.35 717.2 170.803C717.856 171.258 718.273 171.992 718.438 172.985C718.582 173.85 718.472 174.591 718.11 175.184C717.642 175.954 716.758 176.457 715.483 176.676L715.816 178.679L716.15 178.623C718.05 178.307 719.447 177.593 720.304 176.501C721.152 175.42 721.45 174.083 721.191 172.526Z" fill="black"/>
    <path d="M719.249 168.773C718.064 167.975 716.431 167.742 714.397 168.081L708.119 169.125L708.141 169.255C708.363 170.589 709.628 171.493 710.961 171.271L714.445 170.692C715.596 170.5 716.448 170.608 717.05 171.021C717.645 171.433 718.024 172.109 718.177 173.029C718.311 173.83 718.212 174.51 717.885 175.048C717.452 175.758 716.616 176.221 715.398 176.423L715.178 176.46L715.598 178.983L716.193 178.884C718.159 178.557 719.612 177.81 720.511 176.664C721.406 175.523 721.722 174.116 721.45 172.483C721.175 170.819 720.433 169.571 719.249 168.773ZM715.816 178.679L715.483 176.676C716.758 176.457 717.642 175.955 718.111 175.184C718.472 174.59 718.582 173.849 718.438 172.984C718.273 171.992 717.857 171.258 717.2 170.803C716.539 170.35 715.624 170.228 714.403 170.431L710.919 171.011C709.773 171.201 708.683 170.46 708.427 169.341L714.44 168.34C716.406 168.013 717.975 168.232 719.102 168.991C720.224 169.747 720.928 170.937 721.192 172.526C721.451 174.083 721.153 175.42 720.305 176.501C719.448 177.593 718.051 178.307 716.151 178.623L715.816 178.679Z" fill="black"/>
    <path d="M710.253 177.631L709.815 177.704L711.225 186.179L713.928 185.729L712.895 179.519C712.687 178.27 711.502 177.423 710.253 177.631Z" fill="black"/>
    <path d="M710.209 177.37L709.51 177.486L711.007 186.482L714.231 185.946L713.154 179.475C712.923 178.083 711.602 177.138 710.209 177.37ZM713.927 185.729L711.224 186.178L709.814 177.704L710.252 177.631C711.501 177.423 712.686 178.27 712.894 179.519L713.927 185.729Z" fill="black"/>
    <path d="M759.468 177.187L759.624 178.126L762.353 177.672L761.82 174.468L761.356 174.545C760.107 174.753 759.26 175.938 759.468 177.187Z" fill="black"/>
    <path d="M759.207 177.231L759.407 178.43L762.656 177.889L762.036 174.165L761.312 174.285C759.919 174.517 758.975 175.838 759.207 177.231ZM762.352 177.671L759.624 178.125L759.467 177.187C759.26 175.938 760.106 174.753 761.356 174.545L761.819 174.468L762.352 177.671Z" fill="black"/>
    <path d="M754.201 161.724L751.087 162.243L758.43 171.971L760.115 171.69C760.962 171.549 761.655 170.954 761.921 170.136L765.263 159.884L762.222 160.39L759.586 169.318L754.201 161.724Z" fill="black"/>
    <path d="M759.487 168.722L754.322 161.437L750.615 162.054L758.267 172.193L758.315 172.257L760.158 171.951C761.104 171.793 761.875 171.13 762.172 170.219L765.648 159.553L762.015 160.157L759.487 168.722ZM765.263 159.884L761.921 170.137C761.655 170.955 760.963 171.55 760.115 171.691L758.43 171.971L751.087 162.243L754.202 161.725L759.586 169.319L762.222 160.391L765.263 159.885L765.263 159.884Z" fill="black"/>
    <path d="M725.622 166.48L722.919 166.929L724.913 178.91L725.351 178.837C726.599 178.629 727.447 177.444 727.239 176.195L725.622 166.48Z" fill="black"/>
    <path d="M727.499 176.152L725.839 166.176L722.615 166.712L724.695 179.214L725.393 179.098C726.786 178.866 727.73 177.545 727.499 176.152ZM725.35 178.837L724.912 178.91L722.919 166.93L725.622 166.48L727.238 176.195C727.446 177.445 726.599 178.63 725.35 178.837Z" fill="black"/>
    <path d="M732.032 180.787L725.408 181.889L725.721 183.766L734.349 182.331C734.107 181.296 733.095 180.61 732.032 180.787Z" fill="black"/>
    <path d="M725.503 184.07L734.656 182.547L734.634 182.417C734.426 181.166 733.239 180.318 731.988 180.526L725.104 181.672L725.503 184.07ZM725.408 181.889L732.032 180.787C733.095 180.61 734.106 181.296 734.348 182.331L725.72 183.766L725.408 181.889Z" fill="black"/>
    <path d="M755.808 156.391C756.141 156.706 756.464 157.034 756.803 157.343" stroke="black" stroke-width="1.68649" stroke-miterlimit="1.5" stroke-linecap="round" stroke-linejoin="round"/>
    <path d="M761.535 153.595C761.515 154.104 761.534 154.613 761.522 155.122" stroke="black" stroke-width="1.68649" stroke-miterlimit="1.5" stroke-linecap="round" stroke-linejoin="round"/>
    <path d="M766.234 157.072C766.798 156.667 767.319 156.207 767.881 155.801" stroke="black" stroke-width="1.68649" stroke-miterlimit="1.5" stroke-linecap="round" stroke-linejoin="round"/>
    <path d="M769.61 162.682C770.297 162.67 770.996 162.67 771.679 162.597" stroke="black" stroke-width="1.68649" stroke-miterlimit="1.5" stroke-linecap="round" stroke-linejoin="round"/>
    <path fill-rule="evenodd" clip-rule="evenodd" d="M838.475 166.441C839.141 159.93 839.601 153.329 840.013 146.8C836.978 148.789 834.45 151.082 831.837 153.605C829.814 151.18 825.916 148.135 823.172 146.602C820.764 149.852 819.107 152.748 817.348 156.306C814.588 154.722 811.887 153.565 808.808 152.713C810.689 158.554 812.945 164.234 815.527 169.8C818.508 169.089 820.994 167.872 824.017 167.319C829.214 166.37 833.162 166.251 838.475 166.441Z" stroke="url(#paint5_linear_1_389)" stroke-width="3.4417" stroke-miterlimit="1.5" stroke-linecap="round" stroke-linejoin="round"/>
    <path d="M882.294 154.026L892.83 152.273L885.711 139.843L882.21 140.425L880.485 149.305L881.566 149.125C882.528 148.965 883.286 148.212 883.452 147.251L884.308 142.295L889.051 150.966L879.868 152.494L878.74 158.302C880.488 157.932 881.853 156.53 882.164 154.758L882.294 154.026Z" fill="black"/>
    <path d="M885.848 139.552L881.984 140.195L880.152 149.627L881.608 149.385C882.68 149.207 883.525 148.367 883.71 147.295L884.437 143.085L888.638 150.767L879.643 152.264L878.407 158.629L878.594 158.597C880.542 158.273 882.081 156.749 882.423 154.804L882.519 154.256L893.245 152.471L885.848 139.552ZM878.74 158.302L879.868 152.494L889.05 150.966L884.306 142.295L883.45 147.251C883.284 148.212 882.526 148.965 881.564 149.125L880.484 149.305L882.209 140.425L885.71 139.843L892.828 152.274L882.291 154.027L882.163 154.759C881.852 156.53 880.488 157.932 878.74 158.302Z" fill="black"/>
    <path d="M863.238 148.891C862.973 147.302 862.27 146.112 861.148 145.357C860.02 144.598 858.452 144.378 856.486 144.706L850.473 145.706C850.729 146.824 851.819 147.567 852.966 147.376L856.449 146.796C857.671 146.593 858.586 146.715 859.247 147.168C859.903 147.623 860.32 148.357 860.485 149.35C860.629 150.215 860.519 150.956 860.157 151.549C859.689 152.319 858.805 152.822 857.53 153.041L857.863 155.044L858.198 154.988C860.097 154.672 861.494 153.958 862.352 152.866C863.199 151.785 863.497 150.448 863.238 148.891Z" fill="black"/>
    <path d="M861.296 145.138C860.111 144.34 858.479 144.107 856.444 144.446L850.166 145.49L850.188 145.62C850.41 146.954 851.675 147.858 853.009 147.636L856.492 147.057C857.643 146.865 858.495 146.973 859.097 147.386C859.692 147.798 860.071 148.474 860.224 149.394C860.358 150.195 860.259 150.875 859.932 151.413C859.499 152.123 858.663 152.586 857.445 152.788L857.225 152.825L857.645 155.348L858.24 155.249C860.207 154.922 861.659 154.175 862.558 153.029C863.453 151.888 863.769 150.481 863.497 148.848C863.222 147.184 862.481 145.936 861.296 145.138ZM857.863 155.044L857.53 153.041C858.805 152.822 859.689 152.32 860.158 151.548C860.519 150.955 860.629 150.214 860.485 149.349C860.32 148.357 859.904 147.623 859.247 147.168C858.586 146.715 857.671 146.593 856.45 146.796L852.966 147.376C851.82 147.566 850.73 146.825 850.474 145.706L856.487 144.705C858.453 144.378 860.022 144.597 861.149 145.356C862.271 146.112 862.975 147.302 863.239 148.891C863.498 150.448 863.2 151.785 862.352 152.866C861.496 153.958 860.098 154.672 858.198 154.988L857.863 155.044Z" fill="black"/>
    <path d="M852.3 153.996L851.862 154.069L853.272 162.544L855.975 162.094L854.942 155.884C854.734 154.635 853.549 153.788 852.3 153.996Z" fill="black"/>
    <path d="M852.256 153.735L851.557 153.851L853.054 162.847L856.278 162.311L855.202 155.84C854.97 154.448 853.649 153.503 852.256 153.735ZM855.974 162.094L853.271 162.543L851.861 154.069L852.299 153.996C853.548 153.788 854.733 154.635 854.941 155.884L855.974 162.094Z" fill="black"/>
    <path d="M901.515 153.552L901.671 154.491L904.4 154.037L903.867 150.833L903.404 150.91C902.154 151.118 901.307 152.303 901.515 153.552Z" fill="black"/>
    <path d="M901.254 153.596L901.454 154.795L904.703 154.254L904.083 150.53L903.36 150.65C901.967 150.882 901.022 152.203 901.254 153.596ZM904.399 154.036L901.671 154.49L901.515 153.552C901.307 152.303 902.153 151.118 903.403 150.91L903.866 150.833L904.399 154.036Z" fill="black"/>
    <path d="M896.249 138.089L893.134 138.608L900.477 148.336L902.162 148.055C903.009 147.914 903.702 147.319 903.968 146.501L907.31 136.249L904.269 136.755L901.633 145.683L896.249 138.089Z" fill="black"/>
    <path d="M901.534 145.087L896.369 137.802L892.662 138.419L900.314 148.558L900.362 148.622L902.205 148.316C903.151 148.158 903.922 147.495 904.219 146.584L907.695 135.918L904.062 136.522L901.534 145.087ZM907.31 136.249L903.968 146.502C903.702 147.32 903.01 147.915 902.162 148.056L900.477 148.336L893.134 138.608L896.249 138.09L901.633 145.684L904.269 136.756L907.31 136.25L907.31 136.249Z" fill="black"/>
    <path d="M867.669 142.845L864.966 143.294L866.96 155.275L867.398 155.202C868.646 154.994 869.494 153.809 869.286 152.56L867.669 142.845Z" fill="black"/>
    <path d="M869.546 152.517L867.886 142.541L864.662 143.077L866.742 155.579L867.44 155.463C868.833 155.231 869.778 153.91 869.546 152.517ZM867.397 155.202L866.959 155.275L864.966 143.295L867.669 142.845L869.285 152.56C869.493 153.81 868.646 154.995 867.397 155.202Z" fill="black"/>
    <path d="M874.079 157.152L867.455 158.254L867.768 160.131L876.396 158.696C876.154 157.661 875.143 156.975 874.079 157.152Z" fill="black"/>
    <path d="M867.55 160.435L876.703 158.912L876.681 158.782C876.473 157.531 875.286 156.683 874.035 156.891L867.151 158.037L867.55 160.435ZM867.455 158.254L874.079 157.152C875.142 156.975 876.153 157.661 876.395 158.696L867.767 160.131L867.455 158.254Z" fill="black"/>
    <path d="M897.855 132.756C898.188 133.071 898.511 133.399 898.85 133.708" stroke="black" stroke-width="1.68649" stroke-miterlimit="1.5" stroke-linecap="round" stroke-linejoin="round"/>
    <path d="M903.583 129.96C903.562 130.469 903.582 130.978 903.569 131.487" stroke="black" stroke-width="1.68649" stroke-miterlimit="1.5" stroke-linecap="round" stroke-linejoin="round"/>
    <path d="M908.281 133.437C908.845 133.032 909.366 132.572 909.928 132.166" stroke="black" stroke-width="1.68649" stroke-miterlimit="1.5" stroke-linecap="round" stroke-linejoin="round"/>
    <path d="M911.657 139.047C912.344 139.035 913.043 139.035 913.727 138.962" stroke="black" stroke-width="1.68649" stroke-miterlimit="1.5" stroke-linecap="round" stroke-linejoin="round"/>
    <path fill-rule="evenodd" clip-rule="evenodd" d="M980.522 142.806C981.188 136.295 981.648 129.694 982.06 123.165C979.025 125.154 976.497 127.447 973.884 129.97C971.861 127.545 967.963 124.5 965.219 122.968C962.811 126.217 961.154 129.113 959.395 132.671C956.635 131.087 953.934 129.93 950.855 129.078C952.737 134.919 954.993 140.599 957.574 146.165C960.555 145.454 963.041 144.237 966.065 143.685C971.261 142.735 975.209 142.616 980.522 142.806Z" stroke="url(#paint6_linear_1_389)" stroke-width="3.4417" stroke-miterlimit="1.5" stroke-linecap="round" stroke-linejoin="round"/>
    <path d="M1024.34 130.391L1034.88 128.638L1027.76 116.208L1024.26 116.79L1022.53 125.67L1023.61 125.49C1024.57 125.33 1025.33 124.577 1025.5 123.616L1026.35 118.66L1031.1 127.331L1021.92 128.859L1020.79 134.667C1022.54 134.297 1023.9 132.895 1024.21 131.123L1024.34 130.391Z" fill="black"/>
    <path d="M1027.89 115.917L1024.03 116.56L1022.2 125.992L1023.65 125.75C1024.73 125.572 1025.57 124.732 1025.76 123.66L1026.48 119.45L1030.69 127.132L1021.69 128.629L1020.45 134.994L1020.64 134.963C1022.59 134.638 1024.13 133.114 1024.47 131.169L1024.57 130.621L1035.29 128.836L1027.89 115.917ZM1020.79 134.667L1021.91 128.859L1031.1 127.331L1026.35 118.66L1025.5 123.616C1025.33 124.577 1024.57 125.33 1023.61 125.49L1022.53 125.67L1024.26 116.791L1027.76 116.208L1034.87 128.639L1024.34 130.392L1024.21 131.124C1023.9 132.895 1022.53 134.297 1020.79 134.667Z" fill="black"/>
    <path d="M1005.29 125.257C1005.02 123.667 1004.32 122.477 1003.19 121.722C1002.07 120.963 1000.5 120.744 998.533 121.071L992.521 122.071C992.776 123.189 993.866 123.932 995.013 123.741L998.496 123.161C999.718 122.958 1000.63 123.08 1001.29 123.534C1001.95 123.988 1002.37 124.722 1002.53 125.715C1002.68 126.58 1002.57 127.321 1002.2 127.914C1001.74 128.684 1000.85 129.187 999.577 129.406L999.91 131.409L1000.24 131.354C1002.14 131.037 1003.54 130.323 1004.4 129.231C1005.25 128.151 1005.54 126.813 1005.29 125.257Z" fill="black"/>
    <path d="M1003.34 121.503C1002.16 120.705 1000.53 120.472 998.491 120.811L992.213 121.855L992.235 121.986C992.457 123.319 993.723 124.223 995.056 124.001L998.539 123.422C999.69 123.23 1000.54 123.338 1001.14 123.752C1001.74 124.164 1002.12 124.839 1002.27 125.759C1002.4 126.56 1002.31 127.24 1001.98 127.778C1001.55 128.488 1000.71 128.951 999.492 129.153L999.272 129.19L999.692 131.713L1000.29 131.614C1002.25 131.287 1003.71 130.54 1004.6 129.394C1005.5 128.253 1005.82 126.846 1005.54 125.213C1005.27 123.549 1004.53 122.301 1003.34 121.503ZM999.911 131.409L999.577 129.406C1000.85 129.187 1001.74 128.685 1002.21 127.914C1002.57 127.32 1002.68 126.58 1002.53 125.715C1002.37 124.722 1001.95 123.988 1001.29 123.534C1000.63 123.08 999.719 122.958 998.497 123.161L995.013 123.741C993.867 123.932 992.777 123.19 992.521 122.071L998.534 121.07C1000.5 120.743 1002.07 120.963 1003.2 121.722C1004.32 122.477 1005.02 123.667 1005.29 125.256C1005.55 126.813 1005.25 128.15 1004.4 129.231C1003.54 130.323 1002.14 131.037 1000.25 131.353L999.911 131.409Z" fill="black"/>
    <path d="M994.347 130.361L993.909 130.434L995.319 138.909L998.022 138.46L996.989 132.249C996.781 131 995.596 130.153 994.347 130.361Z" fill="black"/>
    <path d="M994.303 130.1L993.604 130.217L995.101 139.212L998.325 138.676L997.249 132.205C997.017 130.813 995.696 129.869 994.303 130.1ZM998.022 138.459L995.318 138.909L993.908 130.434L994.346 130.361C995.595 130.153 996.78 131 996.988 132.249L998.022 138.459Z" fill="black"/>
    <path d="M1043.56 129.918L1043.72 130.856L1046.45 130.402L1045.91 127.198L1045.45 127.276C1044.2 127.483 1043.35 128.668 1043.56 129.918Z" fill="black"/>
    <path d="M1043.3 129.961L1043.5 131.16L1046.75 130.619L1046.13 126.895L1045.41 127.015C1044.01 127.247 1043.07 128.568 1043.3 129.961ZM1046.45 130.401L1043.72 130.855L1043.56 129.917C1043.35 128.668 1044.2 127.483 1045.45 127.275L1045.91 127.198L1046.45 130.401Z" fill="black"/>
    <path d="M1038.3 114.454L1035.18 114.973L1042.52 124.701L1044.21 124.42C1045.06 124.279 1045.75 123.684 1046.02 122.867L1049.36 112.614L1046.32 113.12L1043.68 122.048L1038.3 114.454Z" fill="black"/>
    <path d="M1043.58 121.452L1038.42 114.167L1034.71 114.784L1042.36 124.923L1042.41 124.987L1044.25 124.681C1045.2 124.523 1045.97 123.86 1046.27 122.949L1049.74 112.283L1046.11 112.888L1043.58 121.452ZM1049.36 112.614L1046.02 122.867C1045.75 123.685 1045.06 124.28 1044.21 124.421L1042.52 124.701L1035.18 114.973L1038.3 114.455L1043.68 122.049L1046.32 113.121L1049.36 112.615L1049.36 112.614Z" fill="black"/>
    <path d="M1009.72 119.21L1007.01 119.659L1009.01 131.64L1009.44 131.567C1010.69 131.359 1011.54 130.175 1011.33 128.925L1009.72 119.21Z" fill="black"/>
    <path d="M1011.59 128.882L1009.93 118.906L1006.71 119.443L1008.79 131.944L1009.49 131.828C1010.88 131.596 1011.82 130.275 1011.59 128.882ZM1009.44 131.567L1009.01 131.64L1007.01 119.66L1009.72 119.21L1011.33 128.925C1011.54 130.175 1010.69 131.36 1009.44 131.567Z" fill="black"/>
    <path d="M1016.13 133.517L1009.5 134.619L1009.81 136.496L1018.44 135.061C1018.2 134.026 1017.19 133.34 1016.13 133.517Z" fill="black"/>
    <path d="M1009.6 136.8L1018.75 135.277L1018.73 135.147C1018.52 133.896 1017.33 133.048 1016.08 133.256L1009.2 134.402L1009.6 136.8ZM1009.5 134.619L1016.13 133.517C1017.19 133.34 1018.2 134.026 1018.44 135.061L1009.81 136.496L1009.5 134.619Z" fill="black"/>
    <path d="M1039.9 109.121C1040.24 109.436 1040.56 109.765 1040.9 110.073" stroke="black" stroke-width="1.68649" stroke-miterlimit="1.5" stroke-linecap="round" stroke-linejoin="round"/>
    <path d="M1045.63 106.325C1045.61 106.834 1045.63 107.343 1045.62 107.852" stroke="black" stroke-width="1.68649" stroke-miterlimit="1.5" stroke-linecap="round" stroke-linejoin="round"/>
    <path d="M1050.33 109.802C1050.89 109.397 1051.41 108.937 1051.98 108.531" stroke="black" stroke-width="1.68649" stroke-miterlimit="1.5" stroke-linecap="round" stroke-linejoin="round"/>
    <path d="M1053.7 115.412C1054.39 115.401 1055.09 115.4 1055.77 115.327" stroke="black" stroke-width="1.68649" stroke-miterlimit="1.5" stroke-linecap="round" stroke-linejoin="round"/>
    <path fill-rule="evenodd" clip-rule="evenodd" d="M1122.57 119.171C1123.24 112.659 1123.7 106.058 1124.11 99.5295C1121.07 101.518 1118.55 103.811 1115.93 106.334C1113.91 103.91 1110.01 100.865 1107.27 99.3321C1104.86 102.582 1103.2 105.478 1101.44 109.035C1098.68 107.452 1095.98 106.294 1092.9 105.443C1094.79 111.284 1097.04 116.963 1099.62 122.529C1102.6 121.819 1105.09 120.602 1108.11 120.049C1113.31 119.1 1117.26 118.98 1122.57 119.171Z" stroke="url(#paint7_linear_1_389)" stroke-width="3.4417" stroke-miterlimit="1.5" stroke-linecap="round" stroke-linejoin="round"/>
    <path d="M1166.39 106.756L1176.93 105.003L1169.81 92.5725L1166.31 93.155L1164.58 102.035L1165.66 101.855C1166.62 101.695 1167.38 100.942 1167.55 99.9805L1168.4 95.0243L1173.15 103.696L1163.96 105.224L1162.84 111.031C1164.58 110.662 1165.95 109.259 1166.26 107.487L1166.39 106.756Z" fill="black"/>
    <path d="M1169.94 92.282L1166.08 92.9248L1164.25 102.357L1165.7 102.115C1166.78 101.936 1167.62 101.097 1167.81 100.025L1168.53 95.8146L1172.73 103.497L1163.74 104.993L1162.5 111.358L1162.69 111.327C1164.64 111.003 1166.18 109.479 1166.52 107.533L1166.62 106.985L1177.34 105.201L1169.94 92.282ZM1162.84 111.031L1163.96 105.224L1173.15 103.696L1168.4 95.0245L1167.55 99.9807C1167.38 100.942 1166.62 101.695 1165.66 101.855L1164.58 102.035L1166.3 93.1552L1169.81 92.5727L1176.92 105.003L1166.39 106.756L1166.26 107.488C1165.95 109.259 1164.58 110.662 1162.84 111.031Z" fill="black"/>
    <path d="M1147.33 101.621C1147.07 100.032 1146.37 98.842 1145.24 98.0863C1144.12 97.3273 1142.55 97.1082 1140.58 97.4353L1134.57 98.4357C1134.83 99.5538 1135.92 100.296 1137.06 100.106L1140.55 99.5259C1141.77 99.3226 1142.68 99.4445 1143.34 99.8982C1144 100.353 1144.42 101.086 1144.58 102.079C1144.73 102.945 1144.62 103.685 1144.25 104.278C1143.79 105.049 1142.9 105.551 1141.63 105.771L1141.96 107.774L1142.29 107.718C1144.19 107.402 1145.59 106.688 1146.45 105.595C1147.3 104.515 1147.59 103.178 1147.33 101.621Z" fill="black"/>
    <path d="M1145.39 97.8678C1144.21 97.0698 1142.57 96.8369 1140.54 97.1755L1134.26 98.22L1134.28 98.3502C1134.51 99.684 1135.77 100.588 1137.1 100.366L1140.59 99.7864C1141.74 99.5949 1142.59 99.703 1143.19 100.116C1143.79 100.528 1144.17 101.204 1144.32 102.123C1144.45 102.925 1144.36 103.604 1144.03 104.142C1143.6 104.853 1142.76 105.315 1141.54 105.518L1141.32 105.555L1141.74 108.078L1142.34 107.979C1144.3 107.652 1145.76 106.905 1146.65 105.759C1147.55 104.617 1147.87 103.211 1147.59 101.578C1147.32 99.9141 1146.58 98.6659 1145.39 97.8678ZM1141.96 107.774L1141.63 105.771C1142.9 105.551 1143.79 105.05 1144.25 104.278C1144.62 103.684 1144.73 102.944 1144.58 102.079C1144.42 101.086 1144 100.353 1143.34 99.8982C1142.68 99.4445 1141.77 99.3225 1140.55 99.5258L1137.06 100.105C1135.92 100.296 1134.83 99.5545 1134.57 98.4356L1140.58 97.4351C1142.55 97.108 1144.12 97.3272 1145.25 98.0862C1146.37 98.8419 1147.07 100.032 1147.34 101.621C1147.59 103.177 1147.3 104.514 1146.45 105.595C1145.59 106.688 1144.19 107.402 1142.29 107.718L1141.96 107.774Z" fill="black"/>
    <path d="M1136.4 106.725L1135.96 106.798L1137.37 115.274L1140.07 114.824L1139.04 108.614C1138.83 107.364 1137.65 106.518 1136.4 106.725Z" fill="black"/>
    <path d="M1136.35 106.465L1135.65 106.581L1137.15 115.577L1140.37 115.04L1139.3 108.57C1139.07 107.177 1137.75 106.233 1136.35 106.465ZM1140.07 114.823L1137.37 115.273L1135.96 106.798L1136.4 106.725C1137.64 106.518 1138.83 107.364 1139.04 108.614L1140.07 114.823Z" fill="black"/>
    <path d="M1185.61 106.282L1185.77 107.221L1188.5 106.767L1187.96 103.563L1187.5 103.64C1186.25 103.848 1185.4 105.033 1185.61 106.282Z" fill="black"/>
    <path d="M1185.35 106.326L1185.55 107.525L1188.8 106.984L1188.18 103.26L1187.46 103.38C1186.06 103.612 1185.12 104.933 1185.35 106.326ZM1188.5 106.766L1185.77 107.22L1185.61 106.282C1185.4 105.033 1186.25 103.847 1187.5 103.64L1187.96 103.563L1188.5 106.766Z" fill="black"/>
    <path d="M1180.35 90.8191L1177.23 91.3373L1184.57 101.065L1186.26 100.785C1187.11 100.644 1187.8 100.048 1188.06 99.2312L1191.41 88.9786L1188.37 89.4846L1185.73 98.4128L1180.35 90.8191Z" fill="black"/>
    <path d="M1185.63 97.817L1180.47 90.5315L1176.76 91.1483L1184.41 101.288L1184.46 101.352L1186.3 101.045C1187.25 100.888 1188.02 100.224 1188.32 99.3137L1191.79 88.6477L1188.16 89.2522L1185.63 97.817ZM1191.41 88.9787L1188.06 99.232C1187.8 100.049 1187.11 100.645 1186.26 100.786L1184.57 101.066L1177.23 91.3381L1180.35 90.8199L1185.73 98.4137L1188.37 89.4855L1191.41 88.9795L1191.41 88.9787Z" fill="black"/>
    <path d="M1151.77 95.5743L1149.06 96.024L1151.06 108.005L1151.49 107.932C1152.74 107.724 1153.59 106.539 1153.38 105.29L1151.77 95.5743Z" fill="black"/>
    <path d="M1153.64 105.247L1151.98 95.2707L1148.76 95.8071L1150.84 108.309L1151.54 108.192C1152.93 107.961 1153.87 106.64 1153.64 105.247ZM1151.49 107.932L1151.06 108.005L1149.06 96.0242L1151.77 95.5745L1153.38 105.29C1153.59 106.539 1152.74 107.724 1151.49 107.932Z" fill="black"/>
    <path d="M1158.18 109.881L1151.55 110.984L1151.86 112.861L1160.49 111.426C1160.25 110.39 1159.24 109.704 1158.18 109.881Z" fill="black"/>
    <path d="M1151.65 113.165L1160.8 111.642L1160.78 111.512C1160.57 110.261 1159.38 109.413 1158.13 109.621L1151.25 110.766L1151.65 113.165ZM1151.55 110.983L1158.18 109.881C1159.24 109.704 1160.25 110.39 1160.49 111.425L1151.86 112.861L1151.55 110.983Z" fill="black"/>
    <path d="M1181.95 85.4858C1182.28 85.801 1182.61 86.1292 1182.95 86.4376" stroke="black" stroke-width="1.68649" stroke-miterlimit="1.5" stroke-linecap="round" stroke-linejoin="round"/>
    <path d="M1187.68 82.6898C1187.66 83.1989 1187.68 83.708 1187.67 84.217" stroke="black" stroke-width="1.68649" stroke-miterlimit="1.5" stroke-linecap="round" stroke-linejoin="round"/>
    <path d="M1192.38 86.1666C1192.94 85.762 1193.46 85.3015 1194.02 84.8956" stroke="black" stroke-width="1.68649" stroke-miterlimit="1.5" stroke-linecap="round" stroke-linejoin="round"/>
    <path d="M1195.75 91.7763C1196.44 91.7651 1197.14 91.7643 1197.82 91.6918" stroke="black" stroke-width="1.68649" stroke-miterlimit="1.5" stroke-linecap="round" stroke-linejoin="round"/>
    <path fill-rule="evenodd" clip-rule="evenodd" d="M1264.62 95.536C1265.28 89.0243 1265.74 82.4233 1266.16 75.8945C1263.12 77.8833 1260.59 80.1762 1257.98 82.6993C1255.96 80.2749 1252.06 77.23 1249.32 75.6971C1246.91 78.9469 1245.25 81.8427 1243.49 85.4004C1240.73 83.8171 1238.03 82.6594 1234.95 81.8078C1236.83 87.649 1239.09 93.3284 1241.67 98.8944C1244.65 98.184 1247.14 96.9666 1250.16 96.4142C1255.36 95.4645 1259.31 95.3453 1264.62 95.536Z" stroke="url(#paint8_linear_1_389)" stroke-width="3.4417" stroke-miterlimit="1.5" stroke-linecap="round" stroke-linejoin="round"/>
    <path d="M1308.44 83.121L1318.97 81.3679L1311.85 68.9375L1308.35 69.52L1306.63 78.3997L1307.71 78.2199C1308.67 78.0598 1309.43 77.3067 1309.6 76.3455L1310.45 71.3893L1315.19 80.0606L1306.01 81.5885L1304.88 87.3962C1306.63 87.0267 1308 85.6244 1308.31 83.8523L1308.44 83.121Z" fill="black"/>
    <path d="M1311.99 68.647L1308.13 69.2898L1306.3 78.7219L1307.75 78.4797C1308.82 78.3013 1309.67 77.4615 1309.85 76.3901L1310.58 72.1796L1314.78 79.8616L1305.79 81.3583L1304.55 87.7233L1304.74 87.6922C1306.69 87.3681 1308.22 85.8435 1308.57 83.8984L1308.66 83.3503L1319.39 81.5656L1311.99 68.647ZM1304.88 87.3963L1306.01 81.5886L1315.19 80.0608L1310.45 71.3895L1309.59 76.3457C1309.43 77.3069 1308.67 78.06 1307.71 78.2201L1306.63 78.3999L1308.35 69.5202L1311.85 68.9377L1318.97 81.3682L1308.43 83.1214L1308.31 83.8533C1308 85.6245 1306.63 87.0268 1304.88 87.3963Z" fill="black"/>
    <path d="M1289.38 77.9862C1289.12 76.3967 1288.41 75.207 1287.29 74.4513C1286.16 73.6923 1284.6 73.4731 1282.63 73.8003L1276.62 74.8007C1276.87 75.9188 1277.96 76.6613 1279.11 76.4705L1282.59 75.8909C1283.81 75.6876 1284.73 75.8095 1285.39 76.2632C1286.05 76.7177 1286.46 77.4514 1286.63 78.4442C1286.77 79.31 1286.66 80.0503 1286.3 80.6433C1285.83 81.4139 1284.95 81.9163 1283.67 82.1357L1284.01 84.1388L1284.34 84.0831C1286.24 83.767 1287.64 83.0528 1288.5 81.9604C1289.34 80.8802 1289.64 79.5426 1289.38 77.9862Z" fill="black"/>
    <path d="M1287.44 74.2328C1286.25 73.4348 1284.62 73.2019 1282.59 73.5404L1276.31 74.585L1276.33 74.7152C1276.55 76.049 1277.82 76.9528 1279.15 76.731L1282.64 76.1514C1283.79 75.9599 1284.64 76.068 1285.24 76.4812C1285.84 76.8932 1286.21 77.569 1286.37 78.4885C1286.5 79.2895 1286.4 79.9694 1286.08 80.5073C1285.64 81.2176 1284.81 81.6804 1283.59 81.883L1283.37 81.9196L1283.79 84.4428L1284.38 84.3438C1286.35 84.0166 1287.8 83.2696 1288.7 82.124C1289.6 80.9823 1289.91 79.576 1289.64 77.9431C1289.37 76.2791 1288.62 75.0309 1287.44 74.2328ZM1284.01 84.1388L1283.67 82.1357C1284.95 81.9162 1285.83 81.4147 1286.3 80.6432C1286.66 80.0494 1286.77 79.3092 1286.63 78.4442C1286.46 77.4513 1286.05 76.7177 1285.39 76.2632C1284.73 75.8095 1283.81 75.6875 1282.59 75.8908L1279.11 76.4705C1277.96 76.6611 1276.87 75.9195 1276.62 74.8006L1282.63 73.8001C1284.6 73.473 1286.17 73.6921 1287.29 74.4511C1288.41 75.2068 1289.12 76.3965 1289.38 77.986C1289.64 79.5424 1289.34 80.8792 1288.5 81.9603C1287.64 83.0526 1286.24 83.767 1284.34 84.0831L1284.01 84.1388Z" fill="black"/>
    <path d="M1278.44 83.0904L1278.01 83.1633L1279.42 91.639L1282.12 91.1892L1281.09 84.9787C1280.88 83.7293 1279.69 82.8826 1278.44 83.0904Z" fill="black"/>
    <path d="M1278.4 82.8299L1277.7 82.9462L1279.2 91.9419L1282.42 91.4055L1281.35 84.9345C1281.11 83.5423 1279.79 82.5982 1278.4 82.8299ZM1282.12 91.1884L1279.41 91.6381L1278 83.1633L1278.44 83.0904C1279.69 82.8826 1280.88 83.7293 1281.08 84.9786L1282.12 91.1884Z" fill="black"/>
    <path d="M1327.66 82.6472L1327.82 83.5856L1330.54 83.1316L1330.01 79.9281L1329.55 80.0052C1328.3 80.2131 1327.45 81.3978 1327.66 82.6472Z" fill="black"/>
    <path d="M1327.4 82.6907L1327.6 83.8896L1330.85 83.3489L1330.23 79.6245L1329.5 79.7449C1328.11 79.9767 1327.17 81.2977 1327.4 82.6907ZM1330.54 83.131L1327.81 83.585L1327.66 82.6466C1327.45 81.398 1328.3 80.2125 1329.55 80.0046L1330.01 79.9275L1330.54 83.131Z" fill="black"/>
    <path d="M1322.39 67.1841L1319.28 67.7023L1326.62 77.4303L1328.31 77.1499C1329.15 77.0089 1329.85 76.4135 1330.11 75.5962L1333.45 65.3436L1330.41 65.8496L1327.78 74.7778L1322.39 67.1841Z" fill="black"/>
    <path d="M1327.68 74.182L1322.51 66.8965L1318.81 67.5133L1326.46 77.6528L1326.51 77.717L1328.35 77.4104C1329.29 77.2531 1330.07 76.5894 1330.36 75.6786L1333.84 65.0127L1330.21 65.6172L1327.68 74.182ZM1333.45 65.3437L1330.11 75.597C1329.85 76.4143 1329.15 77.0096 1328.31 77.1507L1326.62 77.4311L1319.28 67.7031L1322.39 67.1849L1327.78 74.7786L1330.41 65.8504L1333.45 65.3445L1333.45 65.3437Z" fill="black"/>
    <path d="M1293.81 71.9393L1291.11 72.389L1293.1 84.3697L1293.54 84.2968C1294.79 84.0891 1295.64 82.9042 1295.43 81.6548L1293.81 71.9393Z" fill="black"/>
    <path d="M1295.69 81.6117L1294.03 71.6357L1290.81 72.1721L1292.89 84.6737L1293.58 84.5574C1294.98 84.3258 1295.92 83.0047 1295.69 81.6117ZM1293.54 84.297L1293.1 84.3699L1291.11 72.3892L1293.81 71.9395L1295.43 81.655C1295.64 82.9044 1294.79 84.0892 1293.54 84.297Z" fill="black"/>
    <path d="M1300.22 86.2463L1293.6 87.3485L1293.91 89.2261L1302.54 87.7905C1302.3 86.7553 1301.29 86.0695 1300.22 86.2463Z" fill="black"/>
    <path d="M1293.69 89.5298L1302.85 88.0069L1302.82 87.8767C1302.62 86.6258 1301.43 85.7777 1300.18 85.9858L1293.29 87.1313L1293.69 89.5298ZM1293.6 87.3485L1300.22 86.2463C1301.29 86.0694 1302.3 86.7552 1302.54 87.7905L1293.91 89.2261L1293.6 87.3485Z" fill="black"/>
    <path d="M1324 61.8508C1324.33 62.166 1324.65 62.4942 1324.99 62.8026" stroke="black" stroke-width="1.68649" stroke-miterlimit="1.5" stroke-linecap="round" stroke-linejoin="round"/>
    <path d="M1329.73 59.0548C1329.71 59.5639 1329.73 60.073 1329.71 60.582" stroke="black" stroke-width="1.68649" stroke-miterlimit="1.5" stroke-linecap="round" stroke-linejoin="round"/>
    <path d="M1334.42 62.5316C1334.99 62.127 1335.51 61.6665 1336.07 61.2606" stroke="black" stroke-width="1.68649" stroke-miterlimit="1.5" stroke-linecap="round" stroke-linejoin="round"/>
    <path d="M1337.8 68.1413C1338.49 68.1301 1339.19 68.1293 1339.87 68.0568" stroke="black" stroke-width="1.68649" stroke-miterlimit="1.5" stroke-linecap="round" stroke-linejoin="round"/>
    <path fill-rule="evenodd" clip-rule="evenodd" d="M1406.67 71.9011C1407.33 65.3894 1407.79 58.7884 1408.2 52.2596C1405.17 54.2484 1402.64 56.5414 1400.03 59.0644C1398 56.6401 1394.11 53.5951 1391.36 52.0622C1388.95 55.312 1387.3 58.2078 1385.54 61.7655C1382.78 60.1822 1380.08 59.0245 1377 58.1729C1378.88 64.0141 1381.14 69.6935 1383.72 75.2595C1386.7 74.5491 1389.18 73.3317 1392.21 72.7793C1397.4 71.8296 1401.35 71.7104 1406.67 71.9011Z" stroke="url(#paint9_linear_1_389)" stroke-width="3.4417" stroke-miterlimit="1.5" stroke-linecap="round" stroke-linejoin="round"/>
    <path d="M1431.43 54.3513C1431.16 52.7618 1430.46 51.5721 1429.34 50.8164C1428.21 50.0574 1426.64 49.8383 1424.68 50.1654L1418.66 51.1658C1418.92 52.2839 1420.01 53.0264 1421.16 52.8356L1424.64 52.256C1425.86 52.0527 1426.78 52.1746 1427.44 52.6283C1428.09 53.0828 1428.51 53.8165 1428.68 54.8093C1428.82 55.6751 1428.71 56.4154 1428.35 57.0084C1427.88 57.779 1427 58.2814 1425.72 58.5008L1426.05 60.5039L1426.39 60.4482C1428.29 60.1322 1429.69 59.4179 1430.54 58.3255C1431.39 57.2453 1431.69 55.9077 1431.43 54.3513Z" fill="black"/>
    <path d="M1429.49 50.5979C1428.3 49.7999 1426.67 49.567 1424.63 49.9056L1418.36 50.9501L1418.38 51.0803C1418.6 52.4141 1419.87 53.318 1421.2 53.0962L1424.68 52.5165C1425.83 52.325 1426.69 52.4331 1427.29 52.8463C1427.88 53.2583 1428.26 53.9341 1428.42 54.8536C1428.55 55.6546 1428.45 56.3345 1428.12 56.8724C1427.69 57.5827 1426.85 58.0455 1425.64 58.2481L1425.42 58.2847L1425.84 60.8079L1426.43 60.7089C1428.4 60.3817 1429.85 59.6347 1430.75 58.4891C1431.64 57.3474 1431.96 55.9411 1431.69 54.3082C1431.41 52.6442 1430.67 51.396 1429.49 50.5979ZM1426.05 60.5039L1425.72 58.5008C1427 58.2813 1427.88 57.7798 1428.35 57.0083C1428.71 56.4146 1428.82 55.6743 1428.68 54.8093C1428.51 53.8164 1428.09 53.0828 1427.44 52.6283C1426.78 52.1746 1425.86 52.0527 1424.64 52.2559L1421.16 52.8356C1420.01 53.0263 1418.92 52.2846 1418.66 51.1657L1424.68 50.1652C1426.64 49.8381 1428.21 50.0573 1429.34 50.8163C1430.46 51.572 1431.17 52.7616 1431.43 54.3511C1431.69 55.9075 1431.39 57.2443 1430.54 58.3255C1429.69 59.4177 1428.29 60.1321 1426.39 60.4482L1426.05 60.5039Z" fill="black"/>
    <path d="M1420.49 59.4556L1420.05 59.5284L1421.46 68.0041L1424.17 67.5543L1423.13 61.3438C1422.92 60.0944 1421.74 59.2477 1420.49 59.4556Z" fill="black"/>
    <path d="M1420.45 59.1951L1419.75 59.3113L1421.24 68.307L1424.47 67.7706L1423.39 61.2996C1423.16 59.9074 1421.84 58.9633 1420.45 59.1951ZM1424.17 67.5535L1421.46 68.0032L1420.05 59.5284L1420.49 59.4555C1421.74 59.2478 1422.92 60.0944 1423.13 61.3437L1424.17 67.5535Z" fill="black"/>
    <path d="M1435.86 48.3044L1433.16 48.7542L1435.15 60.7348L1435.59 60.6619C1436.84 60.4542 1437.68 59.2693 1437.48 58.0199L1435.86 48.3044Z" fill="black"/>
    <path d="M1437.74 57.9768L1436.08 48.0008L1432.85 48.5372L1434.93 61.0388L1435.63 60.9226C1437.02 60.6909 1437.97 59.3698 1437.74 57.9768ZM1435.59 60.6621L1435.15 60.735L1433.16 48.7543L1435.86 48.3046L1437.48 58.0201C1437.68 59.2695 1436.84 60.4544 1435.59 60.6621Z" fill="black"/>
    <path d="M1442.27 62.6115L1435.65 63.7136L1435.96 65.5912L1444.59 64.1556C1444.34 63.1204 1443.33 62.4346 1442.27 62.6115Z" fill="black"/>
    <path d="M1435.74 65.895L1444.89 64.372L1444.87 64.2418C1444.66 62.9909 1443.48 62.1428 1442.23 62.351L1435.34 63.4965L1435.74 65.895ZM1435.65 63.7136L1442.27 62.6114C1443.33 62.4345 1444.34 63.1203 1444.59 64.1556L1435.96 65.5912L1435.65 63.7136Z" fill="black"/>
    <defs>
        <linearGradient id="paint0_linear_1_389" x1="100.438" y1="283.124" x2="130.828" y2="278.7" gradientUnits="userSpaceOnUse">
            <stop stop-color="#C1260F"/>
            <stop offset="1" stop-color="#EE642A"/>
        </linearGradient>
        <linearGradient id="paint1_linear_1_389" x1="242.485" y1="259.489" x2="272.875" y2="255.065" gradientUnits="userSpaceOnUse">
            <stop stop-color="#C1260F"/>
            <stop offset="1" stop-color="#EE642A"/>
        </linearGradient>
        <linearGradient id="paint2_linear_1_389" x1="384.533" y1="235.854" x2="414.923" y2="231.43" gradientUnits="userSpaceOnUse">
            <stop stop-color="#C1260F"/>
            <stop offset="1" stop-color="#EE642A"/>
        </linearGradient>
        <linearGradient id="paint3_linear_1_389" x1="526.577" y1="212.22" x2="556.967" y2="207.796" gradientUnits="userSpaceOnUse">
            <stop stop-color="#C1260F"/>
            <stop offset="1" stop-color="#EE642A"/>
        </linearGradient>
        <linearGradient id="paint4_linear_1_389" x1="668.625" y1="188.585" x2="699.015" y2="184.161" gradientUnits="userSpaceOnUse">
            <stop stop-color="#C1260F"/>
            <stop offset="1" stop-color="#EE642A"/>
        </linearGradient>
        <linearGradient id="paint5_linear_1_389" x1="810.672" y1="164.95" x2="841.062" y2="160.526" gradientUnits="userSpaceOnUse">
            <stop stop-color="#C1260F"/>
            <stop offset="1" stop-color="#EE642A"/>
        </linearGradient>
        <linearGradient id="paint6_linear_1_389" x1="952.719" y1="141.315" x2="983.109" y2="136.891" gradientUnits="userSpaceOnUse">
            <stop stop-color="#C1260F"/>
            <stop offset="1" stop-color="#EE642A"/>
        </linearGradient>
        <linearGradient id="paint7_linear_1_389" x1="1094.77" y1="117.679" x2="1125.16" y2="113.256" gradientUnits="userSpaceOnUse">
            <stop stop-color="#C1260F"/>
            <stop offset="1" stop-color="#EE642A"/>
        </linearGradient>
        <linearGradient id="paint8_linear_1_389" x1="1236.82" y1="94.0443" x2="1267.21" y2="89.6206" gradientUnits="userSpaceOnUse">
            <stop stop-color="#C1260F"/>
            <stop offset="1" stop-color="#EE642A"/>
        </linearGradient>
        <linearGradient id="paint9_linear_1_389" x1="1378.86" y1="70.4094" x2="1409.25" y2="65.9858" gradientUnits="userSpaceOnUse">
            <stop stop-color="#C1260F"/>
            <stop offset="1" stop-color="#EE642A"/>
        </linearGradient>
    </defs>
</svg>
