<svg xmlns="http://www.w3.org/2000/svg" width="22" height="19" viewBox="0 0 22 19" fill="none">
    <path d="M8.9265 17.6564C8.82017 17.5528 8.3655 17.1617 7.9915 16.7974C5.63933 14.6613 1.78933 9.08898 0.614167 6.17243C0.425333 5.7295 0.0256667 4.60968 0 4.01137C0 3.43806 0.132 2.89154 0.399667 2.37003C0.773667 1.71992 1.36217 1.19841 2.057 0.912648C2.53917 0.72869 3.982 0.442929 4.00767 0.442929C5.58617 0.157168 8.151 0 10.9853 0C13.6858 0 16.1462 0.157168 17.7485 0.391135C17.7742 0.417925 19.5672 0.703686 20.1813 1.01624C21.3033 1.58954 22 2.70937 22 3.90778V4.01137C21.9725 4.79185 21.2758 6.43319 21.2502 6.43319C20.0732 9.19256 16.412 14.6363 13.9792 16.8242C13.9792 16.8242 13.354 17.4403 12.9635 17.7082C12.4025 18.1262 11.7077 18.3333 11.0128 18.3333C10.2373 18.3333 9.515 18.0994 8.9265 17.6564Z" fill="#EE642A"/>
</svg>